<svg id="last-one1" xmlns="http://www.w3.org/2000/svg" xmlns:xlink="http://www.w3.org/1999/xlink" viewBox="0 0 617 409" shape-rendering="geometricPrecision" text-rendering="geometricPrecision">
<style><![CDATA[
#last-one8_to {animation: last-one8_to__to 3000ms linear infinite normal forwards}@keyframes last-one8_to__to { 0% {transform: translate(401.703018px,123.050495px)} 50% {transform: translate(401.703018px,108.050495px)} 100% {transform: translate(401.703018px,123.050495px)}} #last-one17_ts {animation: last-one17_ts__ts 3000ms linear infinite normal forwards}@keyframes last-one17_ts__ts { 0% {transform: translate(388.778503px,108.050999px) scale(1,1)} 50% {transform: translate(388.778503px,108.050999px) scale(0.813803,1)} 100% {transform: translate(388.778503px,108.050999px) scale(1,1)}} #last-one19_ts {animation: last-one19_ts__ts 3000ms linear infinite normal forwards}@keyframes last-one19_ts__ts { 0% {transform: translate(388.778503px,131.688004px) scale(1,1)} 50% {transform: translate(388.778503px,131.688004px) scale(0.732772,1)} 100% {transform: translate(388.778503px,131.688004px) scale(1,1)}} #last-one25 {animation: last-one25_c_o 3000ms linear infinite normal forwards}@keyframes last-one25_c_o { 0% {opacity: 1} 6.666667% {opacity: 1} 100% {opacity: 1}} #last-one26 {animation: last-one26_c_o 3000ms linear infinite normal forwards}@keyframes last-one26_c_o { 0% {opacity: 0} 10% {opacity: 0} 13.333333% {opacity: 1} 100% {opacity: 1}} #last-one27 {animation: last-one27_c_o 3000ms linear infinite normal forwards}@keyframes last-one27_c_o { 0% {opacity: 0} 20% {opacity: 0} 23.333333% {opacity: 1} 100% {opacity: 1}} #last-one28 {animation: last-one28_c_o 3000ms linear infinite normal forwards}@keyframes last-one28_c_o { 0% {opacity: 0} 46.666667% {opacity: 0} 50% {opacity: 1} 100% {opacity: 1}} #last-one29 {animation: last-one29_c_o 3000ms linear infinite normal forwards}@keyframes last-one29_c_o { 0% {opacity: 0} 53.333333% {opacity: 0} 56.666667% {opacity: 1} 100% {opacity: 1}} #last-one30 {animation: last-one30_c_o 3000ms linear infinite normal forwards}@keyframes last-one30_c_o { 0% {opacity: 0} 60% {opacity: 0} 63.333333% {opacity: 1} 100% {opacity: 1}} #last-one31 {animation: last-one31_c_o 3000ms linear infinite normal forwards}@keyframes last-one31_c_o { 0% {opacity: 0} 60% {opacity: 0} 66.666667% {opacity: 0} 70% {opacity: 1} 100% {opacity: 1}} #last-one32 {animation: last-one32_c_o 3000ms linear infinite normal forwards}@keyframes last-one32_c_o { 0% {opacity: 0} 76.666667% {opacity: 0} 83.333333% {opacity: 1} 100% {opacity: 1}} #last-one33 {animation: last-one33_c_o 3000ms linear infinite normal forwards}@keyframes last-one33_c_o { 0% {opacity: 0} 83.333333% {opacity: 0} 90% {opacity: 1} 93.333333% {opacity: 1} 100% {opacity: 1}} #last-one34 {animation: last-one34_c_o 3000ms linear infinite normal forwards}@keyframes last-one34_c_o { 0% {opacity: 0} 26.666667% {opacity: 0} 30% {opacity: 1} 100% {opacity: 1}} #last-one35 {animation: last-one35_c_o 3000ms linear infinite normal forwards}@keyframes last-one35_c_o { 0% {opacity: 0} 33.333333% {opacity: 0} 36.666667% {opacity: 1} 100% {opacity: 1}} #last-one36 {animation: last-one36_c_o 3000ms linear infinite normal forwards}@keyframes last-one36_c_o { 0% {opacity: 0} 40% {opacity: 0} 43.333333% {opacity: 1} 100% {opacity: 1}} #last-one45_tr {animation: last-one45_tr__tr 3000ms linear infinite normal forwards}@keyframes last-one45_tr__tr { 0% {transform: translate(167.623001px,247.891587px) rotate(0deg)} 50% {transform: translate(167.623001px,247.891587px) rotate(-35.44834deg)} 100% {transform: translate(167.623001px,247.891587px) rotate(0deg)}} #last-one48_to {animation: last-one48_to__to 3000ms linear infinite normal forwards}@keyframes last-one48_to__to { 0% {transform: translate(161.724499px,309.867996px)} 50% {transform: translate(161.724499px,309.867996px)} 100% {transform: translate(161.724499px,309.867996px)}} #last-one49_tr {animation: last-one49_tr__tr 3000ms linear infinite normal forwards}@keyframes last-one49_tr__tr { 0% {transform: translate(161.724499px,324.378998px) rotate(0deg)} 50% {transform: translate(161.724499px,324.378998px) rotate(-13.618691deg)} 100% {transform: translate(161.724499px,324.378998px) rotate(0deg)}} #last-one53_ts {animation: last-one53_ts__ts 3000ms linear infinite normal forwards}@keyframes last-one53_ts__ts { 0% {transform: translate(252.19099px,247.891589px) rotate(-0.758008deg) scale(1,1)} 50% {transform: translate(252.19099px,247.891589px) rotate(-0.758008deg) scale(1.387209,1.227379)} 100% {transform: translate(252.19099px,247.891589px) rotate(-0.758008deg) scale(1,1)}} #last-one55_tr {animation: last-one55_tr__tr 3000ms linear infinite normal forwards}@keyframes last-one55_tr__tr { 0% {transform: translate(246.686493px,296.481003px) rotate(0deg)} 50% {transform: translate(246.686493px,296.481003px) rotate(15.88677deg)} 100% {transform: translate(246.686493px,296.481003px) rotate(0deg)}} #last-one56 {animation: last-one56_c_o 3000ms linear infinite normal forwards}@keyframes last-one56_c_o { 0% {opacity: 1} 50% {opacity: 0} 100% {opacity: 1}} #last-one57 {animation: last-one57_c_o 3000ms linear infinite normal forwards}@keyframes last-one57_c_o { 0% {opacity: 1} 50% {opacity: 0} 100% {opacity: 1}} #last-one58_tr {animation: last-one58_tr__tr 3000ms linear infinite normal forwards}@keyframes last-one58_tr__tr { 0% {transform: translate(246.686493px,337.766006px) rotate(0deg)} 50% {transform: translate(246.686493px,337.766006px) rotate(-21.92112deg)} 100% {transform: translate(246.686493px,337.766006px) rotate(0deg)}} #last-one61_tr {animation: last-one61_tr__tr 3000ms linear infinite normal forwards}@keyframes last-one61_tr__tr { 0% {transform: translate(336.819992px,247.493347px) rotate(0deg)} 50% {transform: translate(336.819992px,247.493347px) rotate(31.560114deg)} 100% {transform: translate(336.819992px,247.493347px) rotate(0deg)}} #last-one64_tr {animation: last-one64_tr__tr 3000ms linear infinite normal forwards}@keyframes last-one64_tr__tr { 0% {transform: translate(246.686493px,296.481003px) rotate(0deg)} 50% {transform: translate(246.686493px,296.481003px) rotate(15.88677deg)} 100% {transform: translate(246.686493px,296.481003px) rotate(0deg)}} #last-one65_tr {animation: last-one65_tr__tr 3000ms linear infinite normal forwards}@keyframes last-one65_tr__tr { 0% {transform: translate(330.921509px,317.12349px) rotate(0deg)} 50% {transform: translate(330.921509px,317.12349px) rotate(-12.320919deg)} 100% {transform: translate(330.921509px,317.12349px) rotate(0deg)}} #last-one88_tr {animation: last-one88_tr__tr 3000ms linear infinite normal forwards}@keyframes last-one88_tr__tr { 0% {transform: translate(581.641449px,247.650002px) rotate(0deg)} 50% {transform: translate(581.641449px,247.650002px) rotate(-10.773415deg)} 100% {transform: translate(581.641449px,247.650002px) rotate(0deg)}} #last-one94_tr {animation: last-one94_tr__tr 3000ms linear infinite normal forwards}@keyframes last-one94_tr__tr { 0% {transform: translate(550.355011px,241.722504px) rotate(0deg)} 50% {transform: translate(550.355011px,241.722504px) rotate(8.203741deg)} 100% {transform: translate(550.355011px,241.722504px) rotate(0deg)}} #last-one112_to {animation: last-one112_to__to 3000ms linear infinite normal forwards}@keyframes last-one112_to__to { 0% {transform: translate(579.55423px,166.557495px)} 50% {transform: translate(579.55423px,137.557495px)} 100% {transform: translate(579.55423px,166.557495px)}} #last-one126 {animation: last-one126_c_o 3000ms linear infinite normal forwards}@keyframes last-one126_c_o { 0% {opacity: 1} 46.666667% {opacity: 1} 50% {opacity: 0} 100% {opacity: 0}} #last-one128 {animation: last-one128_c_o 3000ms linear infinite normal forwards}@keyframes last-one128_c_o { 0% {opacity: 1} 46.666667% {opacity: 1} 50% {opacity: 0} 100% {opacity: 0}} #last-one129 {animation: last-one129_c_o 3000ms linear infinite normal forwards}@keyframes last-one129_c_o { 0% {opacity: 0} 46.666667% {opacity: 0} 50% {opacity: 1} 100% {opacity: 1}} #last-one130 {animation: last-one130_c_o 3000ms linear infinite normal forwards}@keyframes last-one130_c_o { 0% {opacity: 0} 46.666667% {opacity: 0} 50% {opacity: 1} 100% {opacity: 1}} #last-one138_to {animation: last-one138_to__to 3000ms linear infinite normal forwards}@keyframes last-one138_to__to { 0% {transform: translate(59.063258px,275.769997px)} 50% {transform: translate(59.063258px,275.769997px)} 100% {transform: translate(59.063258px,275.769997px)}} #last-one147_to {animation: last-one147_to__to 3000ms linear infinite normal forwards}@keyframes last-one147_to__to { 0% {transform: translate(128.084999px,97.084999px)} 40% {transform: translate(166.973888px,56.233147px)} 83.333333% {transform: translate(204.084999px,110.084999px)} 100% {transform: translate(204.084999px,110.084999px)}} #last-one182 {animation: last-one182_c_o 3000ms linear infinite normal forwards}@keyframes last-one182_c_o { 0% {opacity: 1} 46.666667% {opacity: 1} 50% {opacity: 0} 100% {opacity: 0}} #last-one185 {animation: last-one185_c_o 3000ms linear infinite normal forwards}@keyframes last-one185_c_o { 0% {opacity: 0} 46.666667% {opacity: 0} 50% {opacity: 1} 100% {opacity: 1}} #last-one186 {animation: last-one186_c_o 3000ms linear infinite normal forwards}@keyframes last-one186_c_o { 0% {opacity: 0} 46.666667% {opacity: 0} 50% {opacity: 1} 100% {opacity: 1}}
]]></style>
<defs><filter id="last-one197-filter" x="-150%" width="400%" y="-150%" height="400%"><feColorMatrix id="last-one197-filter-hue-rotate-0" type="hueRotate" values="360" result="result"/></filter></defs><path d="M380.797,204.025h-287.496v149.556h287.496v-149.556Z" fill="#ffa727"/><path d="M549.749,25.95v8.616h-296.092v-8.616c0-5.888,4.78-10.659,10.668-10.659h274.765c5.889,0,10.659,4.771,10.659,10.659Z" fill="#25292b"/><path d="M531.796,26.873h-20.728c-1.373,0-2.497-1.124-2.497-2.497s1.124-2.497,2.497-2.497h20.728c1.373,0,2.497,1.124,2.497,2.497s-1.124,2.497-2.497,2.497Z" fill="#f2e9da"/><path d="M538.515,14.354h-273.597c-6.723,0-12.193,5.47-12.193,12.193v145.398h.745v-145.398c0-6.312,5.135-11.448,11.448-11.448h273.598c6.297,0,11.42,5.135,11.42,11.448v193.007c0,6.312-5.123,11.448-11.42,11.448h-.186v.745h.186c6.708,0,12.165-5.47,12.165-12.193v-193.007c0-6.723-5.458-12.193-12.166-12.193Z" fill="#25292b"/><path d="M497.69,27.239h-20.729c-1.373,0-2.497-1.124-2.497-2.497s1.124-2.497,2.497-2.497h20.729c1.373,0,2.497,1.124,2.497,2.497c0,1.374-1.124,2.497-2.497,2.497Z" fill="#ffbd29"/><path d="M463.531,27.239h-20.729c-1.373,0-2.497-1.124-2.497-2.497s1.124-2.497,2.497-2.497h20.729c1.373,0,2.497,1.124,2.497,2.497c0,1.374-1.124,2.497-2.497,2.497Z" fill="#ffa727"/><g id="last-one8_to" transform="translate(401.703018,123.050495)"><g transform="translate(-401.703018,-123.050495)"><path d="M517.925,98.489c-.147,0-.283-.079-.356-.206l-3.881-6.719c-.074-.127-.074-.284,0-.411l3.881-6.718c.074-.127.209-.206.356-.206s.282.078.356.205l3.89,6.718c.074.128.074.285,0,.413l-3.89,6.719c-.074.127-.21.205-.356.205Zm-3.406-7.13l3.406,5.897l3.414-5.897-3.414-5.896-3.406,5.896Z" fill="#fff"/><path d="M501.866,86.573c-1.293,0-2.344-1.051-2.344-2.343s1.052-2.344,2.344-2.344s2.344,1.052,2.344,2.344-1.052,2.343-2.344,2.343Zm0-3.864c-.839,0-1.521.682-1.521,1.521c0,.838.682,1.52,1.521,1.52s1.521-.682,1.521-1.52c0-.839-.682-1.521-1.521-1.521Z" fill="#fff"/><path d="M514.255,81.819c-1.129,0-2.047-.919-2.047-2.047c0-1.129.919-2.048,2.047-2.048c1.129,0,2.048.919,2.048,2.048c0,1.128-.919,2.047-2.048,2.047Zm0-3.272c-.675,0-1.224.55-1.224,1.225s.549,1.224,1.224,1.224s1.225-.549,1.225-1.224-.55-1.225-1.225-1.225Z" fill="#fff"/><path d="M525.928,89.538c-.836,0-1.516-.68-1.516-1.516s.68-1.516,1.516-1.516s1.516.68,1.516,1.516-.68,1.516-1.516,1.516Zm0-2.208c-.382,0-.693.311-.693.693s.311.693.693.693.693-.311.693-.693c.001-.382-.31-.693-.693-.693Z" fill="#fff"/><path d="M526.395,81.819c-.147,0-.283-.079-.356-.206l-2.438-4.219c-.074-.127-.074-.284,0-.411l2.438-4.22c.074-.127.209-.206.356-.206s.282.078.356.205l2.443,4.22c.074.128.074.285,0,.413l-2.443,4.219c-.074.127-.21.205-.356.205Zm-1.963-4.631l1.963,3.397l1.967-3.397-1.967-3.398-1.963,3.398Z" fill="#fff"/><path d="M508.325,75.306c-.836,0-1.516-.68-1.516-1.516s.68-1.516,1.516-1.516s1.516.68,1.516,1.516-.68,1.516-1.516,1.516Zm0-2.208c-.382,0-.693.311-.693.693s.311.693.693.693.693-.311.693-.693-.311-.693-.693-.693Z" fill="#fff"/></g></g><path d="M461.229,82.997h-214.775v87.125h214.775v-87.125Z" fill="#3c8df3"/><path d="M446.177,93.844h-114.797v5.57h114.797v-5.57Z" fill="#f2e9da"/><g id="last-one17_ts" transform="translate(388.778503,108.050999) scale(1,1)"><path d="M446.177,105.266h-114.797v5.57h114.797v-5.57Z" transform="translate(-388.778503,-108.050999)" fill="#f2e9da"/></g><path d="M446.177,117.481h-114.797v5.57h114.797v-5.57Z" fill="#f2e9da"/><g id="last-one19_ts" transform="translate(388.778503,131.688004) scale(1,1)"><path d="M446.177,128.903h-114.797v5.57h114.797v-5.57Z" transform="translate(-388.778503,-131.688004)" fill="#f2e9da"/></g><path d="M446.177,140.154h-114.797v5.57h114.797v-5.57Z" fill="#f2e9da"/><path d="M410.202,151.577h-78.822v5.57h78.822v-5.57Z" fill="#f2e9da"/><path d="M325.665,157.844h-5.782c-.276,0-.5-.224-.5-.5s.224-.5.5-.5h5.782c.276,0,.5.224.5.5s-.224.5-.5.5Zm-11.564,0h-5.782c-.276,0-.5-.224-.5-.5s.224-.5.5-.5h5.782c.276,0,.5.224.5.5s-.224.5-.5.5Zm-11.565,0h-5.782c-.276,0-.5-.224-.5-.5s.224-.5.5-.5h5.782c.276,0,.5.224.5.5s-.224.5-.5.5Zm-11.565,0h-5.782c-.276,0-.5-.224-.5-.5s.224-.5.5-.5h5.782c.276,0,.5.224.5.5s-.223.5-.5.5Zm-11.564,0h-5.782c-.276,0-.5-.224-.5-.5s.224-.5.5-.5h5.782c.276,0,.5.224.5.5s-.224.5-.5.5Zm-11.565,0h-5.782c-.276,0-.5-.224-.5-.5s.224-.5.5-.5h5.782c.276,0,.5.224.5.5s-.223.5-.5.5Zm-10.764-.8c-.276,0-.5-.224-.5-.5v-5.782c0-.276.224-.5.5-.5s.5.224.5.5v5.782c0,.276-.224.5-.5.5Zm68.587-1.781c-.276,0-.5-.224-.5-.5v-5.782c0-.276.224-.5.5-.5s.5.224.5.5v5.782c0,.277-.224.5-.5.5Zm-68.587-9.783c-.276,0-.5-.224-.5-.5v-5.782c0-.276.224-.5.5-.5s.5.224.5.5v5.782c0,.276-.224.5-.5.5Zm68.587-1.781c-.276,0-.5-.224-.5-.5v-5.782c0-.276.224-.5.5-.5s.5.224.5.5v5.782c0,.276-.224.5-.5.5Zm-68.587-9.784c-.276,0-.5-.224-.5-.5v-5.782c0-.276.224-.5.5-.5s.5.224.5.5v5.782c0,.277-.224.5-.5.5Zm68.587-1.781c-.276,0-.5-.224-.5-.5v-5.782c0-.276.224-.5.5-.5s.5.224.5.5v5.782c0,.277-.224.5-.5.5Zm-68.587-9.783c-.276,0-.5-.224-.5-.5v-5.783c0-.276.224-.5.5-.5s.5.224.5.5v5.783c0,.276-.224.5-.5.5Zm68.587-1.781c-.276,0-.5-.224-.5-.5v-5.783c0-.276.224-.5.5-.5s.5.224.5.5v5.783c0,.276-.224.5-.5.5Zm-68.587-9.784c-.276,0-.5-.224-.5-.5v-5.782c0-.276.224-.5.5-.5s.5.224.5.5v5.782c0,.276-.224.5-.5.5Zm68.587-1.781c-.276,0-.5-.224-.5-.5v-5.782c0-.276.224-.5.5-.5s.5.224.5.5v5.782c0,.276-.224.5-.5.5Zm-68.587-9.784c-.276,0-.5-.224-.5-.5v-5.782c0-.276.224-.5.5-.5s.5.224.5.5v5.782c0,.277-.224.5-.5.5Zm68.587-1.78c-.276,0-.5-.224-.5-.5v-5.782c0-.276.224-.5.5-.5s.5.224.5.5v5.782c0,.276-.224.5-.5.5Zm-3.382-8.184h-5.782c-.276,0-.5-.224-.5-.5s.224-.5.5-.5h5.782c.276,0,.5.224.5.5s-.223.5-.5.5Zm-11.564,0h-5.782c-.276,0-.5-.224-.5-.5s.224-.5.5-.5h5.782c.276,0,.5.224.5.5s-.224.5-.5.5Zm-11.565,0h-5.782c-.276,0-.5-.224-.5-.5s.224-.5.5-.5h5.782c.276,0,.5.224.5.5s-.223.5-.5.5Zm-11.564,0h-5.782c-.276,0-.5-.224-.5-.5s.224-.5.5-.5h5.782c.276,0,.5.224.5.5s-.224.5-.5.5Zm-11.565,0h-5.782c-.276,0-.5-.224-.5-.5s.224-.5.5-.5h5.782c.276,0,.5.224.5.5s-.223.5-.5.5Zm-11.564,0h-5.782c-.276,0-.5-.224-.5-.5s.224-.5.5-.5h5.782c.276,0,.5.224.5.5s-.224.5-.5.5Z" fill="#25292b"/><path d="M322.275,92.266h-68.587v68.587h68.587v-68.587Z" fill="none"/><path d="M463.03,52.978v4.596c0,4.172-3.413,7.586-7.586,7.586h-202.003c-4.172,0-7.586-3.414-7.586-7.586v-4.596c0-4.172,3.413-7.586,7.586-7.586h202.004c4.171,0,7.585,3.414,7.585,7.586Z" fill="#f2e9da"/><path id="last-one25" d="M295.953,52.694c.546,0,1.031.1213,1.456.364.425.234.754.585.988,1.053.243.4593.364,1.014.364,1.664v4.225h-1.82v-3.978c0-.572-.143-1.0097-.429-1.313-.286-.312-.676-.468-1.17-.468-.503,0-.901.156-1.196.468-.286.3033-.429.741-.429,1.313v3.978h-1.82v-9.62h1.82v3.315c.234-.312.546-.5547.936-.728.39-.182.823-.273,1.3-.273Zm6.658,1.599v3.484c0,.2427.056.4203.169.533.121.104.32.156.598.156h.845v1.534h-1.144c-1.534,0-2.301-.7453-2.301-2.236v-3.471h-.858v-1.495h.858v-1.781h1.833v1.781h1.612v1.495h-1.612Zm5.04,0v3.484c0,.2427.056.4203.169.533.121.104.32.156.598.156h.845v1.534h-1.144c-1.534,0-2.301-.7453-2.301-2.236v-3.471h-.858v-1.495h.858v-1.781h1.833v1.781h1.612v1.495h-1.612Z"/><path id="last-one26" d="M311.717,53.838c.234-.3293.555-.6023.962-.819.416-.2253.888-.338,1.417-.338.615,0,1.17.1517,1.664.455.503.3033.897.7367,1.183,1.3.295.5547.442,1.2003.442,1.937s-.147,1.391-.442,1.963c-.286.5633-.68,1.001-1.183,1.313-.494.312-1.049.468-1.664.468-.529,0-.997-.1083-1.404-.325-.399-.2167-.724-.4897-.975-.819v4.459h-1.82v-10.634h1.82v1.04Zm3.809,2.535c0-.4333-.091-.806-.273-1.118-.173-.3207-.407-.5633-.702-.728-.286-.1647-.598-.247-.936-.247-.329,0-.641.0867-.936.26-.286.1647-.52.4073-.702.728-.173.3207-.26.6977-.26,1.131s.087.8103.26,1.131c.182.3207.416.5677.702.741.295.1647.607.247.936.247.338,0,.65-.0867.936-.26.295-.1733.529-.4203.702-.741.182-.3207.273-.702.273-1.144Zm5.938,3.744c-.59,0-1.118-.104-1.586-.312-.468-.2167-.841-.507-1.118-.871-.269-.364-.416-.767-.442-1.209h1.833c.034.2773.169.507.403.689.242.182.541.273.897.273.346,0,.615-.0693.806-.208.199-.1387.299-.3163.299-.533c0-.234-.122-.4073-.364-.52-.234-.1213-.611-.2513-1.131-.39-.538-.13-.98-.2643-1.326-.403-.338-.1387-.633-.351-.884-.637-.243-.286-.364-.6717-.364-1.157c0-.3987.112-.7627.338-1.092.234-.3293.563-.5893.988-.78.433-.1907.94-.286,1.521-.286.858,0,1.542.2167,2.054.65.511.4247.793,1.001.845,1.729h-1.742c-.026-.286-.148-.5113-.364-.676-.208-.1733-.49-.26-.845-.26-.33,0-.585.0607-.767.182-.174.1213-.26.2903-.26.507c0,.2427.121.429.364.559.242.1213.619.247,1.131.377.52.13.949.2643,1.287.403s.628.3553.871.65c.251.286.381.6673.39,1.144c0,.416-.117.7887-.351,1.118-.226.3293-.555.5893-.988.78-.425.182-.923.273-1.495.273Z" opacity="0"/><path id="last-one27" d="M326.703,60.091c-.329,0-.602-.0997-.819-.299-.208-.208-.312-.4637-.312-.767s.104-.5547.312-.754c.217-.208.49-.312.819-.312.321,0,.585.104.793.312.208.1993.312.4507.312.754s-.104.559-.312.767c-.208.1993-.472.299-.793.299Zm0-5.382c-.329,0-.602-.0997-.819-.299-.208-.208-.312-.4637-.312-.767s.104-.5547.312-.754c.217-.208.49-.312.819-.312.321,0,.585.104.793.312.208.1993.312.4507.312.754s-.104.559-.312.767c-.208.1993-.472.299-.793.299Zm7.484-7.02l-3.51,14.664h-1.781l3.51-14.664h1.781Zm6.322,0l-3.51,14.664h-1.781l3.51-14.664h1.781Z" opacity="0"/><path id="last-one28" d="M375.577,60l-2.002-3.536h-.858v3.536h-1.82v-9.074h3.406c.702,0,1.3.1257,1.794.377.494.2427.862.5763,1.105,1.001.251.416.377.884.377,1.404c0,.598-.173,1.1397-.52,1.625-.347.4767-.862.806-1.547.988L377.683,60h-2.106Zm-2.86-4.901h1.521c.494,0,.862-.117,1.105-.351.243-.2427.364-.5763.364-1.001c0-.416-.121-.7367-.364-.962-.243-.234-.611-.351-1.105-.351h-1.521v2.665Z" opacity="0"/><path id="last-one29" d="M378.429,56.373c0-.728.143-1.3737.429-1.937.295-.5633.689-.9967,1.183-1.3.503-.3033,1.062-.455,1.677-.455.537,0,1.005.1083,1.404.325.407.2167.732.4897.975.819v-1.027h1.833v7.202h-1.833v-1.053c-.234.338-.559.6197-.975.845-.407.2167-.88.325-1.417.325-.607,0-1.161-.156-1.664-.468-.494-.312-.888-.7497-1.183-1.313-.286-.572-.429-1.2263-.429-1.963Zm5.668.026c0-.442-.087-.819-.26-1.131-.173-.3207-.407-.5633-.702-.728-.295-.1733-.611-.26-.949-.26s-.65.0823-.936.247-.52.4073-.702.728c-.173.312-.26.6847-.26,1.118s.087.8147.26,1.144c.182.3207.416.5677.702.741.295.1733.607.26.936.26.338,0,.654-.0823.949-.247.295-.1733.529-.416.702-.728.173-.3207.26-.702.26-1.144Z" opacity="0"/><path id="last-one30" d="M389.756,58.466h4.082v1.534h-6.188v-1.404l4.056-6.136h-4.056v-1.534h6.188v1.404l-4.082,6.136Z" opacity="0"/><path id="last-one31" d="M395.703,60.091c-.329,0-.602-.0997-.819-.299-.208-.208-.312-.4637-.312-.767s.104-.5547.312-.754c.217-.208.49-.312.819-.312.321,0,.585.104.793.312.208.1993.312.4507.312.754s-.104.559-.312.767c-.208.1993-.472.299-.793.299Zm2.103-3.692c0-.7453.152-1.3953.455-1.95.303-.5633.724-.9967,1.261-1.3.537-.312,1.153-.468,1.846-.468.893,0,1.629.2253,2.21.676.589.442.984,1.066,1.183,1.872h-1.963c-.104-.312-.282-.5547-.533-.728-.243-.182-.546-.273-.91-.273-.52,0-.932.1907-1.235.572-.303.3727-.455.9057-.455,1.599c0,.6847.152,1.2177.455,1.599.303.3727.715.559,1.235.559.737,0,1.218-.3293,1.443-.988h1.963c-.199.78-.594,1.3997-1.183,1.859s-1.326.689-2.21.689c-.693,0-1.309-.1517-1.846-.455-.537-.312-.958-.7453-1.261-1.3-.303-.5633-.455-1.2177-.455-1.963Z" opacity="0"/><path id="last-one32" d="M410.095,60.117c-.693,0-1.317-.1517-1.872-.455-.555-.312-.992-.7497-1.313-1.313-.312-.5633-.468-1.2133-.468-1.95s.16-1.3867.481-1.95c.329-.5633.776-.9967,1.339-1.3.563-.312,1.192-.468,1.885-.468s1.322.156,1.885.468c.563.3033,1.005.7367,1.326,1.3.329.5633.494,1.2133.494,1.95s-.169,1.3867-.507,1.95c-.329.5633-.78,1.001-1.352,1.313-.563.3033-1.196.455-1.898.455Zm0-1.586c.329,0,.637-.078.923-.234.295-.1647.529-.4073.702-.728s.26-.7107.26-1.17c0-.6847-.182-1.209-.546-1.573-.355-.3727-.793-.559-1.313-.559s-.958.1863-1.313.559c-.347.364-.52.8883-.52,1.573s.169,1.2133.507,1.586c.347.364.78.546,1.3.546Z" opacity="0"/><path id="last-one33" d="M423.841,52.694c.884,0,1.595.273,2.132.819.546.5373.819,1.2913.819,2.262v4.225h-1.82v-3.978c0-.5633-.143-.9923-.429-1.287-.286-.3033-.676-.455-1.17-.455s-.888.1517-1.183.455c-.286.2947-.429.7237-.429,1.287v3.978h-1.82v-3.978c0-.5633-.143-.9923-.429-1.287-.286-.3033-.676-.455-1.17-.455-.503,0-.901.1517-1.196.455-.286.2947-.429.7237-.429,1.287v3.978h-1.82v-7.202h1.82v.871c.234-.3033.533-.5417.897-.715.373-.1733.78-.26,1.222-.26.563,0,1.066.1213,1.508.364.442.234.784.572,1.027,1.014.234-.416.572-.7497,1.014-1.001.451-.2513.936-.377,1.456-.377Z" opacity="0"/><path id="last-one34" d="M345.03,60.091c-.633,0-1.205-.1083-1.716-.325-.503-.2167-.901-.5287-1.196-.936s-.446-.8883-.455-1.443h1.95c.026.3727.156.6673.39.884.243.2167.572.325.988.325.425,0,.758-.0997,1.001-.299.243-.208.364-.4767.364-.806c0-.2687-.082-.4897-.247-.663s-.373-.3077-.624-.403c-.243-.104-.581-.2167-1.014-.338-.589-.1733-1.07-.3423-1.443-.507-.364-.1733-.68-.429-.949-.767-.26-.3467-.39-.806-.39-1.378c0-.5373.134-1.0053.403-1.404s.646-.702,1.131-.91c.485-.2167,1.04-.325,1.664-.325.936,0,1.694.2297,2.275.689.589.4507.914,1.0833.975,1.898h-2.002c-.017-.312-.152-.5677-.403-.767-.243-.208-.568-.312-.975-.312-.355,0-.641.091-.858.273-.208.182-.312.4463-.312.793c0,.2427.078.4463.234.611.165.156.364.286.598.39.243.0953.581.208,1.014.338.589.1733,1.07.3467,1.443.52s.693.4333.962.78.403.8017.403,1.365c0,.4853-.126.936-.377,1.352s-.62.7497-1.105,1.001c-.485.2427-1.062.364-1.729.364Zm5.595,0c-.329,0-.602-.0997-.819-.299-.208-.208-.312-.4637-.312-.767s.104-.5547.312-.754c.217-.208.49-.312.819-.312.321,0,.585.104.793.312.208.1993.312.4507.312.754s-.104.559-.312.767c-.208.1993-.472.299-.793.299Z" opacity="0"/><path id="last-one35" d="M359.019,60l-3.302-4.043v4.043h-1.82v-9.074h1.82v4.069l3.302-4.069h2.197l-3.744,4.498L361.32,60h-2.301Z" transform="translate(-1 0)" opacity="0"/><path id="last-one36" d="M368.696,52.798v7.202h-1.833v-.91c-.234.312-.542.559-.923.741-.373.1733-.78.26-1.222.26-.563,0-1.062-.117-1.495-.351-.433-.2427-.776-.5937-1.027-1.053-.243-.468-.364-1.0227-.364-1.664v-4.225h1.82v3.965c0,.572.143,1.014.429,1.326.286.3033.676.455,1.17.455.503,0,.897-.1517,1.183-.455.286-.312.429-.754.429-1.326v-3.965h1.833Z" opacity="0"/><path d="M282.751,52.902v4.747c0,3.142-2.566,5.708-5.708,5.708h-23.326c-3.142,0-5.708-2.566-5.708-5.708v-4.747c0-3.142,2.566-5.708,5.708-5.708h23.326c3.142,0,5.708,2.566,5.708,5.708Z" fill="#3c8df3"/><path d="M409.114,186.63v9.194h-296.092v-9.194c0-5.57,4.51-10.071,10.071-10.071h275.95c5.571,0,10.071,4.501,10.071,10.071Z" fill="#25292b"/><path d="M391.162,188.935h-20.729c-1.373,0-2.497-1.124-2.497-2.497s1.124-2.497,2.497-2.497h20.729c1.373,0,2.497,1.124,2.497,2.497-.001,1.373-1.124,2.497-2.497,2.497Z" fill="#ffbd29"/><path d="M357.055,188.935h-20.728c-1.373,0-2.497-1.124-2.497-2.497s1.124-2.497,2.497-2.497h20.728c1.373,0,2.497,1.124,2.497,2.497s-1.123,2.497-2.497,2.497Z" fill="#f2e9da"/><path d="M322.897,188.935h-20.729c-1.373,0-2.497-1.124-2.497-2.497s1.124-2.497,2.497-2.497h20.729c1.373,0,2.497,1.124,2.497,2.497-.001,1.373-1.124,2.497-2.497,2.497Z" fill="#ffa727"/><path d="M397.881,393.443h-273.598c-6.723,0-12.193-5.47-12.193-12.193v-193.007c0-6.723,5.47-12.193,12.193-12.193h273.598c6.708,0,12.165,5.47,12.165,12.193v193.007c0,6.723-5.457,12.193-12.165,12.193ZM124.283,176.795c-6.312,0-11.448,5.135-11.448,11.448v193.007c0,6.312,5.135,11.448,11.448,11.448h273.598c6.297,0,11.42-5.136,11.42-11.448v-193.007c0-6.312-5.123-11.448-11.42-11.448h-273.598Z" fill="#25292b"/><path d="M195.916,215.234h-68.383v68.383h68.383v-68.383Z" fill="#f2e9da"/><path d="M163.535,274.2c-14.709,0-26.676-11.967-26.676-26.676c0-14.71,11.967-26.677,26.676-26.677c14.71,0,26.677,11.967,26.677,26.677c0,14.709-11.967,26.676-26.677,26.676Zm0-48.044c-11.782,0-21.368,9.586-21.368,21.369c0,11.782,9.586,21.368,21.368,21.368c11.783,0,21.369-9.586,21.369-21.368c0-11.783-9.586-21.369-21.369-21.369Z" fill="#ffbd29"/><g id="last-one45_tr" transform="translate(167.623001,247.891587) rotate(0)"><path d="M179.9,249.104l-22.587,13.735c-1.269.768-2.879-.139-2.879-1.621v-27.46c0-1.472,1.61-2.378,2.879-1.61L179.9,245.873c1.216.735,1.216,2.495,0,3.231Z" transform="translate(-167.623001,-247.493347)" fill="#ffbd29"/></g><path d="M197.727,282.215h-6.037c-.276,0-.5-.224-.5-.5s.224-.5.5-.5h6.037c.276,0,.5.224.5.5s-.224.5-.5.5Zm-12.073,0h-6.037c-.276,0-.5-.224-.5-.5s.224-.5.5-.5h6.037c.276,0,.5.224.5.5s-.223.5-.5.5Zm-12.073,0h-6.037c-.276,0-.5-.224-.5-.5s.224-.5.5-.5h6.037c.276,0,.5.224.5.5s-.223.5-.5.5Zm-12.073,0h-6.037c-.276,0-.5-.224-.5-.5s.224-.5.5-.5h6.037c.276,0,.5.224.5.5s-.223.5-.5.5Zm-12.073,0h-6.037c-.276,0-.5-.224-.5-.5s.224-.5.5-.5h6.037c.276,0,.5.224.5.5s-.223.5-.5.5Zm-12.073,0h-6.037c-.276,0-.5-.224-.5-.5s.224-.5.5-.5h6.037c.276,0,.5.224.5.5s-.223.5-.5.5Zm60.365-1.889c-.276,0-.5-.224-.5-.5v-6.037c0-.276.224-.5.5-.5s.5.224.5.5v6.037c0,.277-.224.5-.5.5Zm-68.383-2.166c-.276,0-.5-.224-.5-.5v-6.037c0-.276.224-.5.5-.5s.5.224.5.5v6.037c0,.277-.223.5-.5.5Zm68.383-9.907c-.276,0-.5-.224-.5-.5v-6.036c0-.276.224-.5.5-.5s.5.224.5.5v6.036c0,.276-.224.5-.5.5Zm-68.383-2.166c-.276,0-.5-.224-.5-.5v-6.037c0-.276.224-.5.5-.5s.5.224.5.5v6.037c0,.276-.223.5-.5.5Zm68.383-9.907c-.276,0-.5-.224-.5-.5v-6.036c0-.276.224-.5.5-.5s.5.224.5.5v6.036c0,.276-.224.5-.5.5Zm-68.383-2.166c-.276,0-.5-.224-.5-.5v-6.036c0-.276.224-.5.5-.5s.5.224.5.5v6.036c0,.276-.223.5-.5.5Zm68.383-9.907c-.276,0-.5-.224-.5-.5v-6.036c0-.276.224-.5.5-.5s.5.224.5.5v6.036c0,.276-.224.5-.5.5Zm-68.383-2.166c-.276,0-.5-.224-.5-.5v-6.036c0-.276.224-.5.5-.5s.5.224.5.5v6.036c0,.276-.223.5-.5.5Zm68.383-9.907c-.276,0-.5-.224-.5-.5v-6.037c0-.276.224-.5.5-.5s.5.224.5.5v6.037c0,.277-.224.5-.5.5Zm-68.383-2.166c-.276,0-.5-.224-.5-.5v-6.037c0-.276.224-.5.5-.5s.5.224.5.5v6.037c0,.277-.223.5-.5.5Zm68.383-9.907c-.276,0-.5-.224-.5-.5v-6.036c0-.276.224-.5.5-.5s.5.224.5.5v6.036c0,.276-.224.5-.5.5Zm-68.383-2.166c-.276,0-.5-.224-.5-.5v-3.963c0-.276.224-.5.5-.5h2.074c.276,0,.5.224.5.5s-.224.5-.5.5h-1.574v3.463c0,.276-.223.5-.5.5Zm62.439-3.963h-6.037c-.276,0-.5-.224-.5-.5s.224-.5.5-.5h6.037c.276,0,.5.224.5.5s-.223.5-.5.5Zm-12.073,0h-6.037c-.276,0-.5-.224-.5-.5s.224-.5.5-.5h6.037c.276,0,.5.224.5.5s-.224.5-.5.5Zm-12.073,0h-6.037c-.276,0-.5-.224-.5-.5s.224-.5.5-.5h6.037c.276,0,.5.224.5.5s-.223.5-.5.5Zm-12.073,0h-6.037c-.276,0-.5-.224-.5-.5s.224-.5.5-.5h6.037c.276,0,.5.224.5.5s-.224.5-.5.5Zm-12.073,0h-6.037c-.276,0-.5-.224-.5-.5s.224-.5.5-.5h6.037c.276,0,.5.224.5.5s-.223.5-.5.5Z" fill="#25292b"/><path d="M193.951,298.458h-64.453c-1.081,0-1.965-.884-1.965-1.965v-.024c0-1.081.884-1.965,1.965-1.965h64.453c1.081,0,1.965.884,1.965,1.965v.024c0,1.081-.884,1.965-1.965,1.965Z" fill="#f2e9da"/><g id="last-one48_to" transform="translate(161.724499,309.867996)"><path d="M193.951,311.845h-64.453c-1.081,0-1.965-.884-1.965-1.965v-.024c0-1.081.884-1.965,1.965-1.965h64.453c1.081,0,1.965.884,1.965,1.965v.024c0,1.081-.884,1.965-1.965,1.965Z" transform="rotate(14.326803) translate(-161.724499,-309.867996)" fill="#f2e9da"/></g><g id="last-one49_tr" transform="translate(161.724499,324.378998) rotate(0)"><path d="M193.951,326.356h-64.453c-1.081,0-1.965-.884-1.965-1.965v-.024c0-1.081.884-1.965,1.965-1.965h64.453c1.081,0,1.965.884,1.965,1.965v.024c0,1.081-.884,1.965-1.965,1.965Z" transform="translate(-161.724499,-324.378998)" fill="#f2e9da"/></g><path d="M193.951,339.743h-64.453c-1.081,0-1.965-.884-1.965-1.965v-.024c0-1.081.884-1.965,1.965-1.965h64.453c1.081,0,1.965.884,1.965,1.965v.024c0,1.081-.884,1.965-1.965,1.965Z" fill="#f2e9da"/><path d="M280.878,215.234h-68.383v68.383h68.383v-68.383Z" fill="#f2e9da"/><path d="M248.498,274.2c-14.709,0-26.676-11.967-26.676-26.676c0-14.71,11.967-26.677,26.676-26.677c14.71,0,26.677,11.967,26.677,26.677-.001,14.709-11.967,26.676-26.677,26.676Zm0-48.044c-11.782,0-21.368,9.586-21.368,21.369c0,11.782,9.586,21.368,21.368,21.368c11.783,0,21.369-9.586,21.369-21.368-.001-11.783-9.587-21.369-21.369-21.369Z" fill="#ffbd29"/><g id="last-one53_ts" transform="translate(252.19099,247.891589) rotate(-0.758008) scale(1,1)"><path d="M264.863,249.104l-22.587,13.735c-1.269.768-2.879-.139-2.879-1.621v-27.46c0-1.472,1.61-2.378,2.879-1.61l22.587,13.725c1.216.735,1.216,2.495,0,3.231Z" transform="translate(-252.586014,-247.493347)" fill="#ffbd29"/></g><path d="M282.689,282.215h-6.037c-.276,0-.5-.224-.5-.5s.224-.5.5-.5h6.037c.276,0,.5.224.5.5s-.224.5-.5.5Zm-12.073,0h-6.037c-.276,0-.5-.224-.5-.5s.224-.5.5-.5h6.037c.276,0,.5.224.5.5s-.223.5-.5.5Zm-12.073,0h-6.037c-.276,0-.5-.224-.5-.5s.224-.5.5-.5h6.037c.276,0,.5.224.5.5s-.224.5-.5.5Zm-12.073,0h-6.037c-.276,0-.5-.224-.5-.5s.224-.5.5-.5h6.037c.276,0,.5.224.5.5s-.223.5-.5.5Zm-12.073,0h-6.037c-.276,0-.5-.224-.5-.5s.224-.5.5-.5h6.037c.276,0,.5.224.5.5s-.224.5-.5.5Zm-12.073,0h-6.037c-.276,0-.5-.224-.5-.5s.224-.5.5-.5h6.037c.276,0,.5.224.5.5s-.223.5-.5.5Zm60.365-1.888c-.276,0-.5-.224-.5-.5v-6.037c0-.276.224-.5.5-.5s.5.224.5.5v6.037c0,.277-.224.5-.5.5Zm-68.382-2.168c-.276,0-.5-.224-.5-.5v-6.036c0-.276.224-.5.5-.5s.5.224.5.5v6.036c0,.277-.224.5-.5.5Zm68.382-9.905c-.276,0-.5-.224-.5-.5v-6.036c0-.276.224-.5.5-.5s.5.224.5.5v6.036c0,.276-.224.5-.5.5Zm-68.382-2.168c-.276,0-.5-.224-.5-.5v-6.036c0-.276.224-.5.5-.5s.5.224.5.5v6.036c0,.276-.224.5-.5.5Zm68.382-9.905c-.276,0-.5-.224-.5-.5v-6.036c0-.276.224-.5.5-.5s.5.224.5.5v6.036c0,.276-.224.5-.5.5Zm-68.382-2.167c-.276,0-.5-.224-.5-.5v-6.037c0-.276.224-.5.5-.5s.5.224.5.5v6.037c0,.276-.224.5-.5.5Zm68.382-9.906c-.276,0-.5-.224-.5-.5v-6.036c0-.276.224-.5.5-.5s.5.224.5.5v6.036c0,.276-.224.5-.5.5Zm-68.382-2.167c-.276,0-.5-.224-.5-.5v-6.037c0-.276.224-.5.5-.5s.5.224.5.5v6.037c0,.276-.224.5-.5.5Zm68.382-9.906c-.276,0-.5-.224-.5-.5v-6.037c0-.276.224-.5.5-.5s.5.224.5.5v6.037c0,.277-.224.5-.5.5Zm-68.382-2.168c-.276,0-.5-.224-.5-.5v-6.036c0-.276.224-.5.5-.5s.5.224.5.5v6.036c0,.277-.224.5-.5.5Zm68.382-9.905c-.276,0-.5-.224-.5-.5v-6.036c0-.276.224-.5.5-.5s.5.224.5.5v6.036c0,.276-.224.5-.5.5Zm-68.382-2.168c-.276,0-.5-.224-.5-.5v-3.962c0-.276.224-.5.5-.5h2.074c.276,0,.5.224.5.5s-.224.5-.5.5h-1.574v3.462c0,.276-.224.5-.5.5Zm62.439-3.962h-6.037c-.276,0-.5-.224-.5-.5s.224-.5.5-.5h6.037c.276,0,.5.224.5.5s-.223.5-.5.5Zm-12.073,0h-6.037c-.276,0-.5-.224-.5-.5s.224-.5.5-.5h6.037c.276,0,.5.224.5.5s-.224.5-.5.5Zm-12.073,0h-6.037c-.276,0-.5-.224-.5-.5s.224-.5.5-.5h6.037c.276,0,.5.224.5.5s-.223.5-.5.5Zm-12.073,0h-6.037c-.276,0-.5-.224-.5-.5s.224-.5.5-.5h6.037c.276,0,.5.224.5.5s-.224.5-.5.5Zm-12.073,0h-6.037c-.276,0-.5-.224-.5-.5s.224-.5.5-.5h6.037c.276,0,.5.224.5.5s-.223.5-.5.5Z" fill="#25292b"/><g id="last-one55_tr" transform="translate(246.686493,296.481003) rotate(0)"><path d="M278.913,298.458h-64.453c-1.081,0-1.965-.884-1.965-1.965v-.024c0-1.081.884-1.965,1.965-1.965h64.453c1.081,0,1.965.884,1.965,1.965v.024c0,1.081-.884,1.965-1.965,1.965Z" transform="translate(-246.686493,-296.481003)" fill="#f2e9da"/></g><path id="last-one56" d="M278.913,311.845h-64.453c-1.081,0-1.965-.884-1.965-1.965v-.024c0-1.081.884-1.965,1.965-1.965h64.453c1.081,0,1.965.884,1.965,1.965v.024c0,1.081-.884,1.965-1.965,1.965Z" fill="#f2e9da"/><path id="last-one57" d="M278.913,326.356h-64.453c-1.081,0-1.965-.884-1.965-1.965v-.024c0-1.081.884-1.965,1.965-1.965h64.453c1.081,0,1.965.884,1.965,1.965v.024c0,1.081-.884,1.965-1.965,1.965Z" fill="#f2e9da"/><g id="last-one58_tr" transform="translate(246.686493,337.766006) rotate(0)"><path d="M278.913,339.743h-64.453c-1.081,0-1.965-.884-1.965-1.965v-.024c0-1.081.884-1.965,1.965-1.965h64.453c1.081,0,1.965.884,1.965,1.965v.024c0,1.081-.884,1.965-1.965,1.965Z" transform="translate(-246.686493,-337.766006)" fill="#f2e9da"/></g><path d="M365.113,215.234h-68.383v68.383h68.383v-68.383Z" fill="#f2e9da"/><path d="M332.732,274.2c-14.709,0-26.676-11.967-26.676-26.676c0-14.71,11.967-26.677,26.676-26.677c14.71,0,26.677,11.967,26.677,26.677c0,14.709-11.967,26.676-26.677,26.676Zm0-48.044c-11.782,0-21.368,9.586-21.368,21.369c0,11.782,9.586,21.368,21.368,21.368c11.783,0,21.369-9.586,21.369-21.368c0-11.783-9.586-21.369-21.369-21.369Z" fill="#ffbd29"/><g id="last-one61_tr" transform="translate(336.819992,247.493347) rotate(0)"><path d="M349.097,249.104L326.51,262.839c-1.269.768-2.879-.139-2.879-1.621v-27.46c0-1.472,1.61-2.378,2.879-1.61l22.587,13.725c1.216.735,1.216,2.495,0,3.231Z" transform="translate(-336.819992,-247.493347)" fill="#ffbd29"/></g><path d="M366.924,282.215h-6.036c-.276,0-.5-.224-.5-.5s.224-.5.5-.5h6.036c.276,0,.5.224.5.5s-.224.5-.5.5Zm-12.073,0h-6.036c-.276,0-.5-.224-.5-.5s.224-.5.5-.5h6.036c.276,0,.5.224.5.5s-.224.5-.5.5Zm-12.073,0h-6.037c-.276,0-.5-.224-.5-.5s.224-.5.5-.5h6.037c.276,0,.5.224.5.5s-.223.5-.5.5Zm-12.073,0h-6.037c-.276,0-.5-.224-.5-.5s.224-.5.5-.5h6.037c.276,0,.5.224.5.5s-.223.5-.5.5Zm-12.073,0h-6.036c-.276,0-.5-.224-.5-.5s.224-.5.5-.5h6.036c.276,0,.5.224.5.5s-.224.5-.5.5Zm-12.073,0h-6.037c-.276,0-.5-.224-.5-.5s.224-.5.5-.5h6.037c.276,0,.5.224.5.5s-.223.5-.5.5Zm60.365-1.889c-.276,0-.5-.224-.5-.5v-6.037c0-.276.224-.5.5-.5s.5.224.5.5v6.037c0,.277-.224.5-.5.5Zm-68.383-2.166c-.276,0-.5-.224-.5-.5v-6.037c0-.276.224-.5.5-.5s.5.224.5.5v6.037c0,.277-.224.5-.5.5Zm68.383-9.907c-.276,0-.5-.224-.5-.5v-6.036c0-.276.224-.5.5-.5s.5.224.5.5v6.036c0,.276-.224.5-.5.5Zm-68.383-2.166c-.276,0-.5-.224-.5-.5v-6.037c0-.276.224-.5.5-.5s.5.224.5.5v6.037c0,.276-.224.5-.5.5Zm68.383-9.907c-.276,0-.5-.224-.5-.5v-6.036c0-.276.224-.5.5-.5s.5.224.5.5v6.036c0,.276-.224.5-.5.5Zm-68.383-2.166c-.276,0-.5-.224-.5-.5v-6.036c0-.276.224-.5.5-.5s.5.224.5.5v6.036c0,.276-.224.5-.5.5Zm68.383-9.907c-.276,0-.5-.224-.5-.5v-6.036c0-.276.224-.5.5-.5s.5.224.5.5v6.036c0,.276-.224.5-.5.5Zm-68.383-2.166c-.276,0-.5-.224-.5-.5v-6.036c0-.276.224-.5.5-.5s.5.224.5.5v6.036c0,.276-.224.5-.5.5Zm68.383-9.907c-.276,0-.5-.224-.5-.5v-6.037c0-.276.224-.5.5-.5s.5.224.5.5v6.037c0,.277-.224.5-.5.5Zm-68.383-2.166c-.276,0-.5-.224-.5-.5v-6.037c0-.276.224-.5.5-.5s.5.224.5.5v6.037c0,.277-.224.5-.5.5Zm68.383-9.907c-.276,0-.5-.224-.5-.5v-6.036c0-.276.224-.5.5-.5s.5.224.5.5v6.036c0,.276-.224.5-.5.5Zm-68.383-2.166c-.276,0-.5-.224-.5-.5v-3.963c0-.276.224-.5.5-.5h2.074c.276,0,.5.224.5.5s-.224.5-.5.5h-1.574v3.463c0,.276-.224.5-.5.5Zm62.439-3.963h-6.036c-.276,0-.5-.224-.5-.5s.224-.5.5-.5h6.036c.276,0,.5.224.5.5s-.224.5-.5.5Zm-12.073,0h-6.037c-.276,0-.5-.224-.5-.5s.224-.5.5-.5h6.037c.276,0,.5.224.5.5s-.223.5-.5.5Zm-12.073,0h-6.037c-.276,0-.5-.224-.5-.5s.224-.5.5-.5h6.037c.276,0,.5.224.5.5s-.224.5-.5.5Zm-12.073,0h-6.036c-.276,0-.5-.224-.5-.5s.224-.5.5-.5h6.036c.276,0,.5.224.5.5s-.224.5-.5.5Zm-12.073,0h-6.036c-.276,0-.5-.224-.5-.5s.224-.5.5-.5h6.036c.276,0,.5.224.5.5s-.224.5-.5.5Z" fill="#25292b"/><path d="M363.148,298.458h-64.453c-1.081,0-1.965-.884-1.965-1.965v-.024c0-1.081.884-1.965,1.965-1.965h64.453c1.081,0,1.965.884,1.965,1.965v.024c-.001,1.081-.885,1.965-1.965,1.965Z" fill="#f2e9da"/><g id="last-one64_tr" transform="translate(246.686493,296.481003) rotate(0)"><path d="M278.913,298.458h-64.453c-1.081,0-1.965-.884-1.965-1.965v-.024c0-1.081.884-1.965,1.965-1.965h64.453c1.081,0,1.965.884,1.965,1.965v.024c0,1.081-.884,1.965-1.965,1.965Z" transform="translate(-246.686493,-296.481003)" fill="#f2e9da"/></g><g id="last-one65_tr" transform="translate(330.921509,317.12349) rotate(0)"><g transform="translate(-330.921509,-317.123489)"><path d="M363.148,311.845h-64.453c-1.081,0-1.965-.884-1.965-1.965v-.024c0-1.081.884-1.965,1.965-1.965h64.453c1.081,0,1.965.884,1.965,1.965v.024c-.001,1.081-.885,1.965-1.965,1.965Z" fill="#f2e9da"/><path d="M363.148,326.356h-64.453c-1.081,0-1.965-.884-1.965-1.965v-.024c0-1.081.884-1.965,1.965-1.965h64.453c1.081,0,1.965.884,1.965,1.965v.024c-.001,1.081-.885,1.965-1.965,1.965Z" fill="#f2e9da"/></g></g><path d="M363.148,339.743h-64.453c-1.081,0-1.965-.884-1.965-1.965v-.024c0-1.081.884-1.965,1.965-1.965h64.453c1.081,0,1.965.884,1.965,1.965v.024c-.001,1.081-.885,1.965-1.965,1.965Z" fill="#f2e9da"/><path d="M315.711,361.143l-16.228,16.228h-163.83c-1.751,0-3.37-.563-4.698-1.509-1.398-.996-2.475-2.425-3.018-4.095-.262-.785-.402-1.63-.402-2.505c0-2.234.916-4.266,2.384-5.735s3.501-2.384,5.735-2.384h180.057Z" fill="#ffbd29"/><path d="M377.162,369.262c0,2.223-.916,4.256-2.384,5.725-1.469,1.479-3.501,2.384-5.735,2.384h-69.561l16.228-16.228h53.332c4.468,0,8.12,3.652,8.12,8.119Z" fill="#25292b"/><path d="M308.91,361.143l-16.229,16.228h-7.103l16.219-16.228h7.113Z" fill="#fff"/><path d="M294.07,361.143l-16.228,16.228h-7.103l16.218-16.228h7.113Z" fill="#fff"/><path d="M279.23,361.143l-16.228,16.228h-7.103l16.218-16.228h7.113Z" fill="#fff"/><path d="M264.39,361.143l-16.228,16.228h-7.103l16.218-16.228h7.113Z" fill="#fff"/><path d="M249.551,361.143l-16.228,16.228h-7.113l16.228-16.228h7.113Z" fill="#fff"/><path d="M234.711,361.143l-16.228,16.228h-7.113l16.228-16.228h7.113Z" fill="#fff"/><path d="M219.871,361.143l-16.228,16.228h-7.113l16.228-16.228h7.113Z" fill="#fff"/><path d="M205.032,361.143l-16.229,16.228h-7.113l16.229-16.228h7.113Z" fill="#fff"/><path d="M190.192,361.143l-16.228,16.228h-7.113l16.228-16.228h7.113Z" fill="#fff"/><path d="M175.352,361.143l-16.228,16.228h-7.113l16.228-16.228h7.113Z" fill="#fff"/><path d="M160.512,361.143l-16.228,16.228h-7.113l16.228-16.228h7.113Z" fill="#fff"/><path d="M145.673,361.143l-14.719,14.719c-1.398-.996-2.475-2.425-3.018-4.095l10.624-10.624h7.113Z" fill="#fff"/><path d="M483.953,157.755c9.854,150.557,66.357,179.788,66.357,179.788s23.965-58.931-66.357-179.788Z" fill="#399e29"/><path d="M494.337,184.647l-.804.297l54.435,147.46.804-.297-54.435-147.46Z" fill="#25292b"/><path d="M510.994,231.02l-18.719-19.098.613-.6l17.381,17.732l1.692-24.772.857.058-1.824,26.68Z" fill="#25292b"/><path d="M539.244,307.558l-18.72-19.098.614-.6l17.38,17.733l1.693-24.773.856.058-1.823,26.68Z" fill="#25292b"/><path d="M524.209,266.825l-18.718-19.098.613-.599l17.38,17.731l1.693-24.772.856.059-1.824,26.679Z" fill="#25292b"/><g id="last-one88_tr" transform="translate(581.641449,247.650002) rotate(0)"><g transform="translate(-581.641449,-247.650002)"><path d="M616.735,157.756c-9.854,150.557-66.357,179.788-66.357,179.788s-23.965-58.931,66.357-179.788Z" transform="translate(-.474832 0)" fill="#0f9d25"/><path d="M606.32,184.71L551.933,332.185l.804.296l54.388-147.474-.805-.297Z" fill="#25292b"/><path d="M589.693,231.02l-1.823-26.68.856-.058l1.693,24.773l17.38-17.733.614.6-18.72,19.098Z" transform="translate(-.474832 0)" fill="#25292b"/><path d="M561.445,307.558l-1.824-26.68.857-.058l1.692,24.773l17.381-17.733.613.6-18.719,19.098Z" fill="#25292b"/><path d="M576.478,266.825l-1.823-26.679.856-.059l1.693,24.772l17.381-17.731.613.599-18.72,19.098Z" transform="translate(-.474832 0)" fill="#25292b"/></g></g><g id="last-one94_tr" transform="translate(550.355011,241.722504) rotate(0)"><g transform="translate(-550.355011,-241.722504)"><path d="M550.355,145.901c42.887,144.655,0,191.643,0,191.643s-42.887-46.988,0-191.643Z" transform="translate(.024059 1.040711)" fill="#1a852b"/><path d="M550.785,174.761h-.858v157.19h.858v-157.19Z" fill="#25292b"/><path d="M550.356,223.997l-10.949-24.399.783-.352L550.356,221.9l10.164-22.654.783.352-10.947,24.399Z" fill="#25292b"/><path d="M550.356,305.582l-10.949-24.399.783-.352l10.166,22.654l10.164-22.654.783.352-10.947,24.399Z" fill="#25292b"/><path d="M550.356,262.163l-10.949-24.399.783-.352l10.166,22.655l10.164-22.655.783.352-10.947,24.399Z" fill="#25292b"/></g></g><g transform="matrix(1.725814 0 0 1.212499-400.286155-87.7963)"><path d="M530.98,398.31l-11.572-83.275h61.872l-11.203,82.869-39.097.406Z" transform="translate(-.51349 0)" fill="#f2d9af"/><path d="M530.98,398.81c-.249,0-.461-.184-.495-.432l-11.572-83.274c-.021-.143.023-.288.118-.396.095-.109.232-.172.377-.172h61.873c.145,0,.281.063.377.171.095.108.138.253.118.396l-11.204,82.869c-.033.246-.241.43-.49.433l-39.097.405c0,0-.003,0-.005,0Zm-10.998-83.275l11.433,82.27l38.225-.396l11.069-81.874h-60.727Z" fill="#25292b"/></g><path d="M232.033,160.074h-1.267c-.276,0-.5-.224-.5-.5s.224-.5.5-.5h1.267c1.387,0,2.661-.637,3.495-1.748.166-.221.479-.265.7-.1.221.166.265.479.1.7-1.025,1.366-2.59,2.148-4.295,2.148Zm-7.049,0h-5.782c-.276,0-.5-.224-.5-.5s.224-.5.5-.5h5.782c.276,0,.5.224.5.5s-.224.5-.5.5Zm-11.564,0h-5.782c-.276,0-.5-.224-.5-.5s.224-.5.5-.5h5.782c.276,0,.5.224.5.5s-.224.5-.5.5Zm-11.565,0h-5.782c-.276,0-.5-.224-.5-.5s.224-.5.5-.5h5.782c.276,0,.5.224.5.5s-.224.5-.5.5Zm-11.565,0h-5.782c-.276,0-.5-.224-.5-.5s.224-.5.5-.5h5.782c.276,0,.5.224.5.5s-.224.5-.5.5Zm-11.564,0h-5.782c-.276,0-.5-.224-.5-.5s.224-.5.5-.5h5.782c.276,0,.5.224.5.5s-.224.5-.5.5Zm-11.565,0h-5.782c-.276,0-.5-.224-.5-.5s.224-.5.5-.5h5.782c.276,0,.5.224.5.5s-.223.5-.5.5Zm-11.564,0h-5.782c-.276,0-.5-.224-.5-.5s.224-.5.5-.5h5.782c.276,0,.5.224.5.5s-.224.5-.5.5Zm-11.565,0h-1.393c-1.65,0-3.184-.742-4.209-2.036-.171-.216-.135-.531.082-.703.216-.173.531-.135.703.082.834,1.053,2.083,1.657,3.425,1.657h1.393c.276,0,.5.224.5.5s-.225.5-.501.5Zm-6.26-7.39c-.276,0-.5-.224-.5-.5v-5.782c0-.276.224-.5.5-.5s.5.224.5.5v5.782c0,.277-.224.5-.5.5Zm99.127-.127c-.276,0-.5-.224-.5-.5v-5.782c0-.276.224-.5.5-.5s.5.224.5.5v5.782c0,.277-.223.5-.5.5ZM137.772,141.12c-.276,0-.5-.224-.5-.5v-5.782c0-.276.224-.5.5-.5s.5.224.5.5v5.782c0,.276-.224.5-.5.5Zm99.127-.127c-.276,0-.5-.224-.5-.5v-5.782c0-.276.224-.5.5-.5s.5.224.5.5v5.782c0,.276-.223.5-.5.5Zm-99.127-11.438c-.276,0-.5-.224-.5-.5v-5.782c0-.276.224-.5.5-.5s.5.224.5.5v5.782c0,.277-.224.5-.5.5Zm99.127-.127c-.276,0-.5-.224-.5-.5v-5.782c0-.276.224-.5.5-.5s.5.224.5.5v5.782c0,.276-.223.5-.5.5Zm-99.127-11.437c-.276,0-.5-.224-.5-.5v-5.783c0-.276.224-.5.5-.5s.5.224.5.5v5.783c0,.276-.224.5-.5.5Zm99.127-.128c-.276,0-.5-.224-.5-.5v-5.782c0-.276.224-.5.5-.5s.5.224.5.5v5.782c0,.277-.223.5-.5.5Zm-99.127-11.437c-.276,0-.5-.224-.5-.5v-5.782c0-.276.224-.5.5-.5s.5.224.5.5v5.782c0,.276-.224.5-.5.5Zm99.127-.127c-.276,0-.5-.224-.5-.5v-5.782c0-.276.224-.5.5-.5s.5.224.5.5v5.782c0,.276-.223.5-.5.5ZM137.772,94.861c-.276,0-.5-.224-.5-.5v-5.782c0-.276.224-.5.5-.5s.5.224.5.5v5.782c0,.277-.224.5-.5.5Zm99.127-.127c-.276,0-.5-.224-.5-.5v-5.782c0-.276.224-.5.5-.5s.5.224.5.5v5.782c0,.277-.223.5-.5.5ZM137.772,83.297c-.276,0-.5-.224-.5-.5v-5.782c0-.276.224-.5.5-.5s.5.224.5.5v5.782c0,.276-.224.5-.5.5Zm99.127-.127c-.276,0-.5-.224-.5-.5v-5.782c0-.276.224-.5.5-.5s.5.224.5.5v5.782c0,.276-.223.5-.5.5ZM137.772,71.733c-.276,0-.5-.224-.5-.5v-5.783c0-.276.224-.5.5-.5s.5.224.5.5v5.783c0,.276-.224.5-.5.5Zm99.127-.128c-.276,0-.5-.224-.5-.5v-5.782c0-.132.051-.252.135-.341-.096-.076-.164-.187-.183-.317-.264-1.745-1.595-3.188-3.313-3.592-.269-.063-.436-.333-.373-.601.063-.27.335-.433.601-.373c2.112.497,3.749,2.271,4.073,4.417.023.157-.029.308-.129.416.115.092.189.233.189.392v5.782c0,.275-.223.499-.5.499ZM140.701,61.357c-.193,0-.377-.112-.458-.301-.11-.253.006-.548.259-.658.676-.293,1.395-.442,2.137-.442h3.789c.276,0,.5.224.5.5s-.224.5-.5.5h-3.789c-.604,0-1.189.121-1.738.359-.065.029-.133.042-.2.042Zm86.679-.401h-5.782c-.276,0-.5-.224-.5-.5s.224-.5.5-.5h5.782c.276,0,.5.224.5.5s-.224.5-.5.5Zm-11.564,0h-5.782c-.276,0-.5-.224-.5-.5s.224-.5.5-.5h5.782c.276,0,.5.224.5.5s-.224.5-.5.5Zm-11.565,0h-5.783c-.276,0-.5-.224-.5-.5s.224-.5.5-.5h5.783c.276,0,.5.224.5.5s-.224.5-.5.5Zm-11.565,0h-5.782c-.276,0-.5-.224-.5-.5s.224-.5.5-.5h5.782c.276,0,.5.224.5.5s-.224.5-.5.5Zm-11.564,0h-5.782c-.276,0-.5-.224-.5-.5s.224-.5.5-.5h5.782c.276,0,.5.224.5.5s-.224.5-.5.5Zm-11.565,0h-5.782c-.276,0-.5-.224-.5-.5s.224-.5.5-.5h5.782c.276,0,.5.224.5.5s-.223.5-.5.5Zm-11.565,0h-5.782c-.276,0-.5-.224-.5-.5s.224-.5.5-.5h5.782c.276,0,.5.224.5.5s-.223.5-.5.5Z" fill="#fff"/><path d="M426.537,195.065c-.147,0-.283-.079-.356-.206L422.3,188.14c-.074-.127-.074-.284,0-.411l3.881-6.718c.073-.127.209-.206.356-.206s.283.078.356.205l3.89,6.718c.074.128.074.285,0,.413l-3.89,6.719c-.074.127-.209.205-.356.205Zm-3.407-7.13l3.407,5.897l3.414-5.897-3.414-5.896-3.407,5.896Z" fill="#fff"/><path d="M415.744,187.015c-1.292,0-2.344-1.052-2.344-2.344s1.052-2.343,2.344-2.343s2.343,1.051,2.343,2.343-1.051,2.344-2.343,2.344Zm0-3.864c-.839,0-1.521.682-1.521,1.52c0,.839.682,1.521,1.521,1.521.838,0,1.52-.682,1.52-1.521c0-.838-.682-1.52-1.52-1.52Z" fill="#fff"/><path d="M422.655,178.394c-1.129,0-2.048-.919-2.048-2.048c0-1.128.919-2.047,2.048-2.047s2.048.919,2.048,2.047c0,1.13-.919,2.048-2.048,2.048Zm0-3.271c-.675,0-1.225.549-1.225,1.224s.55,1.225,1.225,1.225s1.225-.55,1.225-1.225-.55-1.224-1.225-1.224Z" fill="#fff"/><path d="M413.811,179.337c-.836,0-1.516-.68-1.516-1.516s.68-1.516,1.516-1.516s1.516.681,1.516,1.516-.68,1.516-1.516,1.516Zm0-2.209c-.382,0-.693.311-.693.694c0,.382.311.693.693.693s.693-.311.693-.693c0-.383-.311-.694-.693-.694Z" fill="#fff"/><path d="M242.149,41.389c-.147,0-.283-.078-.356-.206l-2.969-5.141c-.074-.127-.074-.284,0-.411l2.969-5.141c.073-.127.209-.206.356-.206s.283.078.356.205l2.977,5.141c.074.127.074.285,0,.412l-2.977,5.141c-.073.127-.209.206-.356.206Zm-2.495-5.552l2.495,4.319l2.5-4.319-2.5-4.319-2.495,4.319Z" fill="#fff"/><path d="M235.123,33.671c-1.292,0-2.344-1.052-2.344-2.344c0-1.293,1.052-2.344,2.344-2.344s2.343,1.051,2.343,2.344-1.051,2.344-2.343,2.344Zm0-3.865c-.839,0-1.521.682-1.521,1.521s.682,1.521,1.521,1.521c.838,0,1.52-.682,1.52-1.521c0-.838-.682-1.521-1.52-1.521Z" fill="#fff"/><path d="M242.035,27.874c-1.129,0-2.048-.919-2.048-2.048s.919-2.047,2.048-2.047s2.048.919,2.048,2.047c-.001,1.13-.919,2.048-2.048,2.048Zm0-3.272c-.675,0-1.225.549-1.225,1.224s.55,1.225,1.225,1.225s1.225-.549,1.225-1.225c-.001-.674-.55-1.224-1.225-1.224Z" fill="#fff"/><path d="M235.123,25.706c-.836,0-1.516-.68-1.516-1.516s.68-1.516,1.516-1.516s1.516.68,1.516,1.516-.68,1.516-1.516,1.516Zm0-2.208c-.382,0-.693.311-.693.693s.311.693.693.693.693-.311.693-.693-.311-.693-.693-.693Z" fill="#fff"/><g id="last-one112_to" transform="translate(579.55423,166.557495)"><g transform="translate(-579.554229,-166.557495)"><path d="M583.094,179.665c-.147,0-.283-.079-.356-.206l-3.881-6.719c-.073-.127-.073-.284,0-.411l3.881-6.718c.074-.127.209-.206.356-.206s.282.078.356.205l3.89,6.718c.074.128.074.285,0,.413l-3.89,6.719c-.074.127-.21.205-.356.205Zm-3.407-7.13l3.406,5.897l3.414-5.897-3.414-5.896-3.406,5.896Z" fill="#fff"/><path d="M567.035,167.749c-1.293,0-2.344-1.051-2.344-2.343s1.052-2.344,2.344-2.344s2.344,1.052,2.344,2.344-1.052,2.343-2.344,2.343Zm0-3.864c-.839,0-1.521.682-1.521,1.521c0,.838.682,1.52,1.521,1.52s1.521-.682,1.521-1.52c0-.839-.682-1.521-1.521-1.521Z" fill="#fff"/><path d="M579.424,162.995c-1.129,0-2.047-.919-2.047-2.047c0-1.129.919-2.048,2.047-2.048c1.129,0,2.048.919,2.048,2.048-.001,1.128-.919,2.047-2.048,2.047Zm0-3.272c-.675,0-1.224.55-1.224,1.225s.549,1.224,1.224,1.224s1.225-.549,1.225-1.224-.55-1.225-1.225-1.225Z" fill="#fff"/><path d="M591.097,170.714c-.836,0-1.516-.68-1.516-1.516s.68-1.516,1.516-1.516s1.516.68,1.516,1.516-.68,1.516-1.516,1.516Zm0-2.208c-.382,0-.693.311-.693.693s.311.693.693.693.693-.311.693-.693-.311-.693-.693-.693Z" fill="#fff"/><path d="M591.563,162.995c-.147,0-.283-.079-.356-.206l-2.438-4.219c-.074-.127-.074-.284,0-.411l2.438-4.22c.074-.127.209-.206.356-.206s.282.078.356.205l2.443,4.22c.074.128.074.285,0,.413l-2.443,4.219c-.073.127-.209.205-.356.205Zm-1.962-4.631l1.963,3.397l1.967-3.397-1.967-3.398-1.963,3.398Z" fill="#fff"/><path d="M573.494,156.482c-.836,0-1.516-.68-1.516-1.516s.68-1.516,1.516-1.516s1.516.68,1.516,1.516-.68,1.516-1.516,1.516Zm0-2.208c-.382,0-.693.311-.693.693s.311.693.693.693.693-.311.693-.693-.311-.693-.693-.693Z" fill="#fff"/></g></g><path d="M128.577,84.701l-25.538,1.446c0,0,4.079,10.535,3.77,15.363-.318,4.819-5.445,13.126-5.445,13.126c1.675,6.297,2.699,22.037,5.443,58.987l-.463.01c-28.815,15.246-74.168-8.269-74.168-8.269c3.46-8.481,6.476-12.258,6.476-12.258-2.795,0-5.387-.993-7.411-2.679-2.024-1.687-3.469-4.057-3.971-6.813L18.24,94.272C16.274,83.517,21.921,72.82,31.915,68.367L45.86,62.161l24.025-5.667l58.69,1.687v26.52h.002Z" fill="#5b3fa9"/><path d="M38.652,153.605c-.266,0-.487-.209-.499-.477-.013-.276.201-.51.477-.522l54.172-2.48v-15.878l-42.615-6.189c-.23-.033-.407-.221-.426-.453L46.904,93.85c-.023-.275.181-.517.456-.54.272-.027.517.181.54.456l2.824,33.36l42.65,6.195c.246.036.428.246.428.495v16.789c0,.267-.21.487-.477.5l-54.649,2.502c-.008-.002-.016-.002-.024-.002Z" fill="#25292b"/><path d="M103.039,86.647c-.16,0-.317-.076-.414-.218l-5.004-7.344c-.156-.229-.097-.54.131-.695.229-.156.539-.097.695.131l5.004,7.344c.156.229.097.54-.131.695-.087.059-.185.087-.281.087Z" fill="#25292b"/><path d="M68.385,118.771c-.233,0-.441-.163-.489-.4-.055-.271.12-.535.39-.589c9.59-1.953,19.414-3.13,29.197-3.498.28-.028.508.205.518.481.011.276-.205.508-.481.518-9.729.366-19.498,1.536-29.035,3.478-.034.007-.067.01-.1.01Z" fill="#25292b"/><path d="M37.631,51.935c6.352,1.4,12.588,3.602,19.075,4.317c6.296.694,12.724-.171,18.697-2.248c3.912-1.361,7.03-3.499,9.889-6.084-.155-.964-.346-1.922-.594-2.858-1.137-4.269-3.036-8.298-4.385-12.509-1.214-3.758-1.995-7.796-1.34-11.671c1.436-1.638,2.486-3.595,3.065-5.686.164-.607.289-1.262.029-1.831-.472-1.041-1.87-1.166-3.007-1.311-6.187-.781-10.533-6.312-16.007-9.29-5.484-2.968-12.345-3.266998-18.06-.761-5.715,2.496-10.158,7.729-11.69,13.771-1.725,6.775.048,14.196-2.38,20.758-1.224,3.334-3.46,6.187-5.214,9.281-1.023,1.798-1.883,3.78-2.262,5.798c4.726-.595,9.409-.728,14.184.324Z" fill="#25292b"/><path d="M68.47,51.626l3.508,12.075-.299,15.101L45.861,62.159L44.02,41.392c-3.768,1.002-6.679-1.243-8.259-5.233-1.696-4.289-1.041-8.972,2.92-10.543.906-.357,1.85-.52,2.785-.501c1.802.039,3.575.742,4.992,1.956.01,0,.019.01.029.019l-.01-.067.048-.01c.241-.019,1.349-.173,2.92-.626l.106-.029c3.373-1.002,8.77-3.412,12.258-9.078.694-1.128,1.311-2.38,1.821-3.778c0,0,7.902.617,11.796,5.098.52.578.954,1.224,1.301,1.937l.819,11.777c.453,6.428-2.043,12.702-6.785,17.077L68.47,51.626Z" fill="#f2e9da"/><path d="M73.4788,32.1056c1.1543-.0805,2.0178-1.1811,1.9287-2.4583s-1.0971-2.2471-2.2513-2.1666-2.0178,1.1811-1.9287,2.4583s1.0971,2.2471,2.2513,2.1666Z" fill="#25292b"/><path id="last-one126" d="M60.7715,32.992c1.1542-.0806,2.0177-1.1812,1.9286-2.4583s-1.097-2.2471-2.2513-2.1666c-1.1542.0805-2.0177,1.1811-1.9286,2.4582.0891,1.2772,1.097,2.2472,2.2513,2.1667Z" fill="#25292b"/><path d="M71.204,24.511c1.553-.615,3.36-.459,4.729.534.272.197.41.586.204.886-.186.271-.595.415-.886.204-.134-.098-.273-.188-.418-.269-.071-.04-.143-.077-.216-.112-.008-.004-.017-.008-.025-.011-.038-.016-.076-.032-.115-.047-.154-.061-.312-.113-.472-.155-.08-.021-.161-.04-.242-.057-.015-.003-.028-.006-.039-.008-.045-.007-.09-.014-.135-.019-.165-.021-.331-.032-.497-.034-.083-.001-.166,0-.249.004-.041.002-.083.005-.124.007-.002,0-.002,0-.002,0-.005.001-.002.001-.011.002-.165.022-.328.049-.489.088-.081.02-.161.041-.24.066-.04.012-.079.025-.118.038-.011.004-.016.005-.02.006-.008.003-.012.005-.022.009-.311.123-.708.078-.872-.26-.138-.284-.076-.74.259-.872Z" fill="#25292b"/><path id="last-one128" d="M62.331,25.983c-.115.357-.502.457-.827.378-.011-.003-.015-.004-.023-.006-.005-.001-.01-.001-.021-.003-.041-.007-.082-.015-.122-.022-.082-.013-.164-.024-.247-.032-.165-.016-.331-.021-.497-.019-.01,0-.007,0-.012,0-.002,0,0,0-.002,0-.041.003-.083.006-.124.01-.083.008-.165.018-.247.03-.164.025-.327.059-.487.103-.044.012-.087.024-.131.038-.01.004-.024.008-.037.013-.078.029-.155.058-.232.09-.153.064-.302.138-.446.219-.036.02-.072.042-.107.063-.008.005-.016.01-.023.014-.067.045-.134.092-.198.141-.132.1-.257.21-.377.325-.259.249-.684.163-.906-.079-.245-.268-.163-.673.079-.906c1.218-1.173,2.985-1.579,4.609-1.185.349.085.474.529.378.828Z" fill="#25292b"/><path id="last-one129" d="M67.214,20.974c-.115.357-.502.457-.827.378-.011-.003-.015-.004-.023-.006-.005-.001-.01-.001-.021-.003-.041-.007-.082-.015-.122-.022-.082-.013-.164-.024-.247-.032-.165-.016-.331-.021-.497-.019-.01,0-.007,0-.012,0-.002,0,0,0-.002,0-.041.003-.083.006-.124.01-.083.008-.165.018-.247.03-.164.025-.327.059-.487.103-.044.012-.087.024-.131.038-.01.004-.024.008-.037.013-.078.029-.155.058-.232.09-.153.064-.302.138-.446.219-.036.02-.072.042-.107.063-.008.005-.016.01-.023.014-.067.045-.134.092-.198.141-.132.1-.257.21-.377.325-.259.249-.684.163-.906-.079-.245-.268-.163-.673.079-.906c1.218-1.173,2.985-1.579,4.609-1.185.349.085.474.529.378.828Z" transform="translate(-4 8)" opacity="0" fill="#25292b"/><path id="last-one130" d="M67.4249,20.7218c.1656.3366-.0431.6775-.3316.8467-.01.0055-.0136.0076-.0207.0117-.0043.0027-.0079.0062-.0172.0124-.0343.0235-.0694.0462-.103.069-.068.0477-.1345.0968-.1998.1488-.1297.1032-.2525.215-.3704.3318-.0072.007-.005.0049-.0086.0084-.0015.0014,0,0-.0015.0014-.0274.0306-.0555.062-.0822.0934-.054.0634-.106.1276-.1566.1932-.1005.132-.1941.2698-.2785.4127-.0233.0392-.0458.0777-.0677.1184-.0044.0098-.0117.0224-.0176.035-.0359.0751-.0711.1495-.1042.226-.0654.1524-.1211.3092-.1683.4675-.0119.0394-.0225.0802-.0331.1197-.0023.0091-.0045.0183-.0068.026-.0169.0789-.0323.1593-.0443.239-.0253.1637-.0387.3296-.045.4957-.0131.3591-.3783.5927-.7061.5731-.3625-.0223-.5851-.3704-.5731-.7061.0599-1.6899,1.0477-3.2102,2.489-4.0561.3099-.1815.7084.0507.8473.3323Z" transform="translate(-4 8)" opacity="0" fill="#25292b"/><path d="M63.344,54.368c-.152,0-.307-.004-.466-.012-3.887-.21-7.052-3.871-7.185-4.026-.179-.21-.154-.525.056-.705s.525-.154.705.055c.03.035,3.023,3.49,6.478,3.677c3.416.182,5.124-2.012,5.141-2.034.167-.22.48-.263.701-.095.22.167.262.48.095.701-.079.103-1.899,2.439-5.525,2.439Z" fill="#25292b"/><path d="M72.148,39.32c-.012,0-.024,0-.036-.001l-5.057-.368c-.275-.02-.482-.259-.462-.535s.26-.481.535-.462l4.325.315-3.027-9.737c-.082-.264.065-.544.329-.626.265-.081.544.066.626.329l3.245,10.438c.049.158.017.33-.086.459-.096.118-.24.188-.392.188Z" fill="#25292b"/><path d="M66.112,42.958c-.017,0-.034-.001-.051-.002-1.18-.12-2.3-.567-3.239-1.293s-1.654-1.697-2.067-2.809c-.096-.259.036-.547.294-.643.26-.095.547.036.643.294.343.923.961,1.763,1.741,2.366.779.603,1.749.99,2.729,1.089.274.028.475.273.447.548-.026.258-.244.45-.497.45Z" fill="#25292b"/><path d="M42.068,39.524c-.002,0-.005,0-.007,0-1.604-.024-3.088-1.2-3.528-2.796-.416-1.507.132-3.231,1.361-4.29.579-.498,1.194-.74,1.805-.736.198.005.389.042.566.106-.036-.313-.085-.624-.156-.928-.183-.784-.49-1.426-.912-1.909-.419-.48-.938-.757-1.423-.759-.432-.013-.86.213-1.15.562-.284.343-.438.817-.421,1.302.01.276-.206.508-.482.517-.27.018-.507-.206-.517-.482-.025-.727.211-1.447.65-1.976.48-.579,1.195-.923,1.914-.923.003,0,.006,0,.009,0c.772.003,1.564.404,2.172,1.101.531.607.912,1.395,1.132,2.34.193.828.241,1.667.274,2.456.011.266-.188.494-.453.519-.269.023-.503-.163-.542-.425-.039-.263-.355-.492-.692-.501-.425-.018-.855.263-1.125.494-.928.799-1.359,2.143-1.05,3.267.32,1.158,1.429,2.045,2.579,2.062.276.004.497.231.493.507-.001.274-.224.492-.497.492Z" fill="#25292b"/><path d="M69.078,385.089h29.118l7.69,6.791c0,0,22.786-.643,22.786,16.02h-59.594v-22.811Z" fill="#5b3fa9"/><path d="M71.09,406.081c-.275,0-.499-.223-.5-.498-.001-.276.222-.501.498-.502l56.157-.21h.002c.275,0,.499.223.5.498.001.276-.222.501-.498.502l-56.157.21h-.002Z" fill="#25292b"/><path d="M90.107,394.759c-1.108,0-2.215-.059-3.313-.175-2.088-.222-3.364-1.057-3.592-2.35-.295-1.674,1.336-2.865,2.824-3.378c4.519-1.557,9.746-.619,13.496,2.309c1.06-3.369,2.906-6.466,5.374-9c.791-.812,1.768-1.674,3.023-1.916c1.3-.249,2.906.418,3.237,1.807.314,1.318-.612,2.472-1.455,3.33-2.755,2.808-5.789,5.374-9.019,7.627-.125.088-.282.112-.421.071-.04.027-.083.051-.132.066-3.214,1.065-6.625,1.609-10.022,1.609Zm.448-5.65c-1.424,0-2.848.226-4.204.692-.897.31-2.364,1.133-2.165,2.259.202,1.141,1.965,1.449,2.713,1.529c4.156.438,8.446.014,12.438-1.235-.016-.026-.029-.054-.039-.082-2.419-2.051-5.582-3.163-8.743-3.163Zm9.797,2.76c.031.029.062.058.093.087c3.053-2.16,5.925-4.604,8.541-7.271.662-.674,1.396-1.556,1.196-2.396-.196-.82-1.251-1.222-2.075-1.057-.983.189-1.813.931-2.495,1.631-2.458,2.523-4.271,5.63-5.26,9.006Z" fill="#25292b"/><g id="last-one138_to" transform="translate(59.063258,275.769997)"><path d="M100.413,385.035l-32.281.085v-126.121L43.938,386.176h-32.731c0,0,8.73-164.444,13.424-192.912c2.024-12.287,4.915-21.452,7.546-27.9c0,0,45.353,23.515,74.168,8.269l.463-.01c1.068,74.534-5.874,197.197-6.395,211.412Z" transform="translate(-59.063258,-275.769997)" fill="#25292b"/></g><path d="M42.698,386.144l4.011,21.478h-38.22801L12.046,386.144h30.652Z" fill="#5b3fa9"/><path d="M14.116,407.622h34.838v-2.268c0-10.796-7.799-17.099-17.419-17.099s-17.419,6.304-17.419,17.099v2.268Z" fill="#5b3fa9"/><path d="M18.896,395.026c-.135,0-.27-.055-.369-.162-.187-.203-.173-.52.031-.706c4.512-4.139,9.096-5.984,14.863-5.984c6.545,0,10.499,3.953,10.664,4.121.193.197.19.514-.006.707-.198.193-.514.19-.707-.006-.038-.038-3.84-3.822-9.951-3.822-5.499,0-9.874,1.765-14.188,5.721-.095.087-.216.131-.337.131Z" fill="#25292b"/><path d="M47.749,406.141h-37.04c-.276,0-.5-.224-.5-.5s.224-.5.5-.5h37.04c.276,0,.5.224.5.5s-.224.5-.5.5Z" fill="#25292b"/><path d="M68.133,259.499c-.032,0-.064-.003-.097-.01-.271-.053-.448-.315-.395-.587L80.486,193.55c.038-.19.182-.342.37-.389l22.861-5.715c.267-.068.539.096.606.364s-.096.539-.364.606l-22.553,5.639-12.784,65.041c-.046.238-.255.403-.489.403Z" fill="#f2e9da"/><path d="M18.365,386.676c-.014,0-.028-.001-.042-.002-.275-.022-.48-.264-.457-.539.122-1.48,12.28-148.262,15.106-173.076c2.839-24.937,14.551-41.192,14.669-41.354.162-.223.475-.272.698-.108.223.163.271.476.109.699-.117.16-11.675,16.216-14.483,40.876-2.824,24.799-14.981,171.565-15.103,173.045-.021.261-.24.459-.497.459Z" fill="#f2e9da"/><g><path d="M220.38,40.187h-105.17v91.688h105.17v-91.688Z" fill="#f2e9da"/><g id="last-one147_to" transform="translate(128.084999,97.084999)"><g transform="translate(-187.084999,-64.084999)"><path d="M186.715,72.43c4.813,0,8.715-3.9018,8.715-8.715s-3.902-8.715-8.715-8.715-8.715,3.9018-8.715,8.715s3.902,8.715,8.715,8.715Z" fill="#ffbd29"/><path d="M187.085,49v3.017m0,24.136v3.017M176.42,53.4199l2.127,2.127m17.076,17.0762l2.127,2.127M172,64.085h3.017m24.136,0h3.017m-23.623,8.5381l-2.127,2.127m21.33-21.3302l-2.127,2.127" fill="none" stroke="#ffbd29" stroke-width="2" stroke-linecap="round" stroke-linejoin="round"/></g></g></g><path d="M115.074,100.539c0,0,21.674-21.79,36.677-21.79c21.432,0,68.497,53.959,68.497,53.959h-105.174v-32.169Z" fill="#5b3fa9"/><path d="M108.932,33.915v104.231h117.723v-104.231h-117.723ZM220.38,131.871h-105.173v-91.681h105.173v91.681Z" fill="#25292b"/><path d="M221.471,100.473v32.236h-91.274c0,0,47.058-39.58,68.491-39.58c7.104,0,15.7,3.585,22.783,7.344Z" fill="#25292b"/><path d="M222.673,38.677c-.02-.75.267-1.441.75-1.947.483-.505,1.154-.832,1.904-.852l6.759-.019c1.5-.04,2.758,1.154,2.798,2.654.02.746-.267,1.437-.75,1.943-.483.509-1.154.832-1.904.852l-6.759.019c-1.499.04-2.758-1.154-2.798-2.65Z" fill="#f2e9da"/><path d="M221.694,43.924c-.023-.879.314-1.694.884-2.29.569-.6,1.36-.98,2.244-1.004l7.906-.049c1.768-.047,3.251,1.36,3.298,3.123.023.884-.314,1.694-.884,2.294-.569.595-1.361.976-2.244.999l-7.906.049c-1.768.048-3.252-1.354-3.298-3.122Z" fill="#f2e9da"/><path d="M221.779,49.929c-.023-.884.314-1.694.884-2.294.569-.6,1.36-.98,2.244-1.004l7.906-.049c1.768-.047,3.251,1.36,3.298,3.128.023.884-.314,1.694-.884,2.29s-1.361.98-2.244,1.004l-7.906.049c-1.768.046-3.252-1.361-3.298-3.124Z" fill="#f2e9da"/><path d="M221.844,55.412c-.023-.884.37-1.696,1.03-2.294s1.575-.986,2.596-1.013l6.825-.02c2.042-.054,3.749,1.347,3.796,3.11.023.884-.37,1.696-1.03,2.298s-1.575.986-2.596,1.013l-6.825.02c-2.042.055-3.75-1.346-3.796-3.114Z" fill="#f2e9da"/><path d="M224.018,53.197c-.266-.009-.48-.227-.482-.496-.002-.276.221-.501.497-.503l10.387-.091c.262.005.501.221.503.497s-.221.501-.497.503l-10.387.091c-.007,0-.014,0-.021-.001Z" fill="#25292b"/><path d="M224.045,47.269c-.268-.009-.483-.23-.482-.501.001-.276.225-.499.501-.498l10.016.039c.278-.021.499.225.498.501s-.225.499-.501.498l-10.016-.039c-.006.001-.011.001-.016,0Z" fill="#25292b"/><path d="M224.073,41.238c-.263-.009-.477-.222-.482-.489-.006-.276.213-.505.489-.51l10.044-.282c.268-.002.505.212.51.489.006.276-.213.505-.489.51l-10.044.282c-.009,0-.019,0-.028,0Z" fill="#25292b"/><path d="M121.382,138.514h-17.57c-1.974,0-3.589-1.615-3.589-3.589s1.615-3.589,3.589-3.589h17.57c1.974,0,3.589,1.615,3.589,3.589s-1.615,3.589-3.589,3.589Z" fill="#f2e9da"/><path d="M102.974,131.337c-5.321,0-9.182,3.059-9.182,3.059v13.931l13.121,2.498c2.008.382,4.066.163,5.983-.639l26.225-6.855c.905-.378,1.509-1.386,1.509-2.516c0-1.474-1.016-2.67-2.268-2.67h-19.282l-16.106-6.808Z" fill="#f2e9da"/><path d="M123.255,138.646h-17.322c-.276,0-.5-.224-.5-.5s.224-.5.5-.5h17.322c.276,0,.5.224.5.5s-.223.5-.5.5Z" fill="#25292b"/><path d="M117.212,145.746c-.256,0-.475-.196-.498-.457-.024-.275.179-.518.455-.542l21.91-1.915c.278-.021.518.18.542.455s-.179.518-.455.542l-21.91,1.915c-.015.001-.03.002-.044.002Z" fill="#25292b"/><path d="M599.417,398.292c0,4.799-3.884,8.731-8.731,8.731h-50.913l-2.57-23.018l7.292-9.296l54.912,23.168c.01.136.01.28.01.415Z" fill="#ffbd29"/><path d="M540.457,407.593h-70.371c-11.642,0-21.25-9.097-21.886-20.72l3.202-77.899-33.113,4.819l4.713,70.997h-30L374.16,304.753c-2.66-11.314,3.97-22.734,15.111-26.03l43.512-12.885l78.273,5.455c-2.055,28.574-23.17,100.412-23.17,100.412l49.091,4.808l3.48,31.08Z" fill="#25292b"/><path d="M451.401,309.474c-.252,0-.469-.19-.496-.447-.029-.274.17-.521.444-.55.435-.046,43.57-4.805,51.308-20.883.12-.249.419-.354.667-.233.249.119.354.418.233.667-7.977,16.578-50.305,21.253-52.103,21.443-.016.002-.035.003-.053.003Z" fill="#f2e9da"/><path d="M406.346,382.613c-.236,0-.447-.169-.491-.41L392.878,310.96c-1.206-6.87,2.423-13.594,8.823-16.354l42.269-18.238c.252-.111.549.008.657.261.109.254-.008.548-.261.657l-42.269,18.238c-5.974,2.577-9.36,8.852-8.235,15.26l12.977,71.24c.049.271-.131.532-.402.582-.031.004-.061.007-.091.007Z" fill="#f2e9da"/><path d="M422.612,384.779h-29.118l-7.69,6.791c0,0-22.786-.643-22.786,16.02h59.593l.001-22.811Z" fill="#ffbd29"/><path d="M420.601,405.772h-.002l-.21-.001-55.947-.209c-.276-.001-.499-.226-.498-.502.001-.275.225-.498.5-.498h.002l56.157.21c.276.001.499.226.498.502-.001.275-.225.498-.5.498Z" fill="#25292b"/><path d="M401.583,394.449c-3.397,0-6.809-.544-10.021-1.608-.048-.016-.093-.038-.132-.066-.14.04-.294.018-.421-.071-3.231-2.254-6.266-4.82-9.02-7.627-.842-.858-1.768-2.013-1.454-3.33.329-1.389,1.948-2.053,3.235-1.807c1.256.241,2.233,1.104,3.024,1.916c2.467,2.533,4.313,5.631,5.373,9c3.75-2.928,8.978-3.864,13.496-2.309c1.487.513,3.12,1.705,2.824,3.378-.229,1.293-1.505,2.128-3.593,2.35-1.095.116-2.203.174-3.311.174Zm-9.23-2.404c3.991,1.249,8.28,1.675,12.438,1.235.749-.08,2.512-.389,2.714-1.529.198-1.125-1.268-1.949-2.166-2.259-4.363-1.504-9.438-.506-12.947,2.471-.01.028-.024.056-.039.082Zm-9.14-11.157c-.743,0-1.537.39-1.704,1.09-.2.842.534,1.724,1.195,2.397c2.614,2.666,5.486,5.11,8.541,7.271.031-.029.062-.058.093-.086-.989-3.377-2.803-6.485-5.259-9.008-.683-.7-1.513-1.442-2.496-1.631-.119-.022-.244-.033-.37-.033Z" fill="#25292b"/><path d="M597.109,400.151c-.065,0-.132-.013-.196-.04l-51.658-22.025c-.254-.108-.372-.402-.264-.656.108-.253.399-.372.656-.264l51.658,22.025c.254.108.372.402.264.656-.081.19-.266.304-.46.304Z" fill="#25292b"/><path d="M517.6,145.653l-6.9,98.492.357,27.148c0,0-15.921,11.092-38.626,11.16-22.705.067-39.647-16.614-39.647-16.614l14.6-23.438-1.879-17.684-16.74,9.117c-8.461,4.597-19.053,1.041-23.014-7.739l-14.359-31.783l16.007-8.837l14.128,18.552c0,0,39.493-28.911,45.246-30.376.867-.222,1.715-.395,2.554-.53c6.813-1.128,12.393.212,12.393.212l11.7-8.105-4.655-26.936-1.532-8.895-15.93-25.991l12.422-10.9l29.268,37.913c3.354,4.344,4.992,9.76,4.607,15.234Z" fill="#5b3fa9"/><path d="M497.28,171.57c-.162,0-.321-.079-.417-.225l-3.86-5.844c-.152-.23-.089-.541.142-.692.23-.153.54-.089.692.142l3.86,5.844c.152.23.089.541-.142.692-.084.057-.18.083-.275.083Z" fill="#25292b"/><path d="M486.554,176.706c-.083,0-.166-.02-.242-.063l-4.565-2.533c-.242-.134-.329-.438-.195-.68.135-.243.442-.328.68-.194l4.565,2.533c.242.134.329.438.195.68-.093.164-.262.257-.438.257Z" fill="#25292b"/><path d="M445.504,225.216c-.172,0-.339-.089-.433-.248-.139-.239-.058-.545.181-.685l19.561-11.384c.236-.139.544-.059.685.181.139.239.058.545-.181.685l-19.561,11.384c-.079.045-.166.067-.252.067Z" fill="#25292b"/><path d="M415.056,208.742c-.163,0-.323-.08-.419-.227-.15-.231-.085-.542.146-.692l6.471-4.217c.232-.149.542-.086.692.146s.085.542-.146.692l-6.471,4.217c-.085.055-.18.081-.273.081Z" fill="#25292b"/><path d="M487.57,253.618c-.184,0-.36-.102-.447-.277-.123-.247-.022-.547.225-.67c6.742-3.36,13.249-7.317,19.34-11.76.223-.162.535-.113.699.109.162.224.113.536-.109.699-6.137,4.475-12.691,8.461-19.484,11.846-.072.037-.148.053-.224.053Z" fill="#25292b"/><path d="M497.458,142.82c-1.34,7.401-3.44,14.639-5.763,21.79.087.405-.376.848-.742.482-1.475-1.484-2.843-3.074-4.067-4.78-4.173-5.802-6.727-12.731-7.324-19.853-5.233,3.315-11.699,4.443-17.752,2.949-5.137-1.282-10.736-4.462-12.75-9.637-.877-2.255-.877-4.847.135-7.064c1.06-2.342,3.122-3.739,5.619-4.183c1.475-.27,2.978-.241,4.462-.279c1.629-.039,3.248-.173,4.847-.414c3.354-.511,6.476-1.581,9.656-2.718c2.93-1.06,6.1-1.985,9.242-1.359c1.831.366,3.566,1.311,4.722,2.756c2.602-.414,5.358.607,7.209,2.477c5.137,5.165,3.662,13.414,2.506,19.833Z" fill="#25292b"/><path d="M493.171,165.83l-11.7,8.105c0,0-5.58-1.34-12.393-.212l.472-5.339-2.65-1.802c-5.426-3.489-8.982-9.232-9.647-15.641L456,139.203c16.354-3.315,23.418-9.203,23.418-9.203.038,6.601,7.218,10.35,7.459,10.321h.048v.067c.01-.01.01-.019.019-.019.463-.559.993-1.06,1.571-1.475l4.656,26.936Z" fill="#f2e9da"/><path d="M499.069,147.452c-.867,4.202-3.334,6.919-7.228,6.592l1.33,11.786-4.655-26.936c.906-.655,1.927-1.108,3.007-1.32.916-.183,1.879-.183,2.833.01c4.173.848,5.638,5.348,4.713,9.868Z" fill="#f2e9da"/><path d="M461.459,149.402c1.15-.122,1.974-1.253,1.839-2.526s-1.177-2.206-2.327-2.084c-1.151.121-1.974,1.252-1.839,2.525.134,1.273,1.176,2.207,2.327,2.085Z" fill="#25292b"/><path id="last-one182" d="M474.125,148.06c1.151-.121,1.974-1.252,1.839-2.525-.134-1.273-1.176-2.206-2.327-2.085-1.15.122-1.974,1.253-1.839,2.526s1.177,2.206,2.327,2.084Z" fill="#25292b"/><path d="M462.386,141.552c-1.637-.335-3.389.134-4.563,1.35-.234.242-.302.649-.047.908.23.234.659.305.908.047.115-.119.236-.233.365-.338.063-.051.127-.101.193-.148.007-.005.015-.01.023-.015.035-.023.07-.045.105-.067.141-.087.288-.165.438-.235.075-.035.152-.067.229-.098.014-.006.027-.011.037-.015.043-.015.086-.029.129-.042.159-.049.32-.089.483-.12.082-.015.163-.028.246-.039.041-.005.082-.01.124-.014.002,0,.002,0,.002,0c.005,0,.002,0,.012,0c.166-.007.331-.009.497.001.083.005.165.013.248.023.041.005.082.011.123.017.011.002.016.002.021.003.008.002.013.003.024.005.328.067.711-.047.813-.408.083-.304-.058-.743-.41-.815Z" fill="#25292b"/><path d="M472.079,141.316c.176.332.574.363.88.228.01-.004.015-.006.022-.01.004-.001.009-.003.02-.007.039-.014.078-.029.117-.043.078-.027.157-.052.237-.074.16-.045.322-.078.486-.105.009-.002.006-.001.011-.002.002,0,0,0,.002,0c.041-.004.082-.009.124-.012.083-.007.166-.011.249-.013.166-.004.332.001.497.016.045.004.09.009.135.014.011.002.025.004.039.007.082.015.163.03.244.048.162.037.321.083.478.138.039.014.078.028.117.043.008.003.017.007.025.01.074.033.148.068.22.105.148.076.29.162.427.254.298.2.702.041.878-.236.195-.307.043-.691-.236-.878-1.403-.943-3.215-1.035-4.745-.364-.328.145-.373.604-.227.881Z" fill="#25292b"/><path id="last-one185" d="M481.684,144.642c-.156.356-.551.411-.865.288-.01-.003-.015-.005-.022-.009-.004-.001-.01-.002-.021-.006-.04-.012-.079-.026-.119-.038-.08-.024-.16-.045-.241-.063-.163-.038-.326-.063-.492-.082-.009-.001-.006-.001-.011-.001-.002,0,0,0-.002,0-.041-.002-.082-.005-.124-.006-.084-.002-.167-.001-.25.001-.166.006-.331.02-.495.046-.045.006-.089.014-.134.022-.011.003-.025.006-.038.01-.081.02-.161.04-.241.064-.16.048-.316.105-.469.171-.038.017-.076.034-.114.052-.008.003-.017.008-.025.012-.071.038-.143.079-.213.122-.143.088-.28.186-.411.29-.285.225-.698.083-.891-.196-.213-.309-.084-.718.183-.929c1.344-1.064,3.147-1.265,4.715-.654.336.132.409.608.28.906Z" transform="translate(-5 0)" opacity="0" fill="#25292b"/><path id="last-one186" d="M480.935,147.247c-.318.208-.678.027-.876-.255-.007-.009-.01-.014-.014-.021-.003-.003-.007-.007-.014-.017-.027-.033-.054-.067-.08-.1-.055-.065-.111-.129-.169-.191-.116-.125-.241-.239-.369-.35-.007-.006-.005-.004-.009-.007-.002-.001,0,0-.002-.001-.033-.026-.066-.052-.101-.076-.069-.05-.139-.097-.21-.143-.142-.09-.288-.173-.439-.246-.041-.02-.082-.039-.124-.058-.01-.004-.024-.01-.037-.014-.079-.03-.157-.059-.236-.085-.159-.051-.32-.093-.483-.126-.041-.008-.082-.015-.123-.022-.008-.002-.018-.003-.027-.004-.08-.009-.162-.017-.243-.021-.166-.009-.332-.006-.497.005-.358.025-.629-.331-.644-.673-.016-.38.307-.647.642-.669c1.687-.116,3.304.751,4.297,2.16.213.303.023.741-.242.914Z" transform="translate(-5 0)" opacity="0" fill="#25292b"/><path d="M473.938,169.708c-2.745,0-4.395-1.487-4.477-1.563-.203-.187-.215-.501-.029-.705.187-.202.502-.217.706-.031.084.077,2.111,1.877,5.418,1.108c3.378-.788,5.715-4.709,5.738-4.749.14-.239.448-.317.684-.178.238.14.318.446.178.685-.104.176-2.581,4.332-6.373,5.215-.66.154-1.276.218-1.845.218Z" fill="#25292b"/><path d="M463.948,156.307c-.121,0-.239-.044-.331-.125-.124-.11-.186-.273-.165-.438l1.378-10.843c.034-.274.291-.467.56-.433.273.035.468.285.433.559l-1.285,10.116l4.203-1.063c.276-.067.541.095.607.362.068.268-.094.54-.361.607l-4.915,1.243c-.042.01-.083.015-.124.015Z" fill="#25292b"/><path d="M470.526,158.838c-.218,0-.419-.144-.481-.363-.075-.266.079-.542.345-.618.947-.269,1.834-.819,2.497-1.548.663-.73,1.126-1.665,1.303-2.633.051-.272.314-.455.582-.402.271.05.452.31.402.582-.214,1.167-.749,2.247-1.547,3.126-.798.878-1.823,1.514-2.964,1.838-.046.013-.092.018-.137.018Z" fill="#25292b"/><path d="M493.603,151.269c-.234,0-.444-.166-.49-.405-.052-.271.126-.534.396-.586c1.131-.217,2.068-1.284,2.181-2.48.109-1.161-.55-2.409-1.603-3.033-.306-.182-.764-.378-1.193-.291-.324.066-.602.353-.594.613.008.266-.193.492-.459.514-.258.018-.501-.168-.536-.432-.105-.781-.203-1.614-.158-2.465.053-.969.29-1.811.708-2.502.476-.791,1.186-1.324,1.946-1.462.713-.129,1.479.085,2.055.574.524.443.884,1.111.985,1.832.038.273-.151.526-.425.565-.279.037-.527-.151-.565-.425-.067-.481-.302-.921-.642-1.208-.346-.293-.812-.426-1.229-.353-.479.087-.94.449-1.269.995-.332.55-.522,1.236-.566,2.039-.017.313-.011.629.009.944.165-.095.347-.167.539-.206.589-.12,1.249.021,1.905.411c1.396.828,2.234,2.43,2.088,3.987-.155,1.648-1.412,3.065-2.987,3.369-.033.002-.064.005-.096.005Z" fill="#25292b"/><path d="M471.74,103.02l11.483-10.076L465.069,77.23c-1.134-.982-2.553-1.573-4.049-1.688l-11.5-.882c-1.033-.079-1.914.737-1.914,1.773l-1.229-.057c-1.932-.09-3.549,1.452-3.549,3.387v.377.522c0,1.753,1.336,3.217,3.081,3.376L456,84.962l3.484,5.398-5.646,7.537c-.988,1.054-.899,2.719.196,3.661.97.835,2.41.817,3.359-.041l6.063-5.482c.002,0,2.234,4.8,8.284,6.985Z" fill="#f2e9da"/><path d="M460.217,77.915c-.014,0-.026,0-.04-.001l-12.609-.982c-.275-.021-.48-.262-.459-.538.021-.275.263-.478.537-.459l12.609.982c.275.021.48.262.459.538-.02.261-.239.46-.497.46Z" fill="#25292b"/><path d="M458.636,82.291c-.018,0-.035-.001-.053-.003l-15.806-1.652c-.274-.028-.475-.274-.445-.549.028-.276.273-.476.549-.445l15.806,1.652c.274.028.475.274.445.549-.026.257-.244.448-.496.448Z" fill="#25292b"/><path d="M406.346,186.055l-12.353,6.82c0,0-7.76-6.031-8.63-7.605s-1.206-15.204-1.206-15.204h11.094v-7.642c0-1.727,1.4-3.126,3.126-3.126c1.727,0,3.126,1.4,3.126,3.126v10.187c0,0,4.26,4.718,4.843,13.444Z" fill="#f2e9da"/><path d="M393.088,175.433c-.068,0-.137-.014-.203-.043-.252-.112-.366-.408-.254-.66l2.164-4.867c.113-.253.408-.366.66-.254s.366.408.254.66l-2.164,4.867c-.083.186-.266.297-.457.297Z" fill="#25292b"/><path d="M615.66,408.063c0,.26-.34.47-.75.47h-614.15c-.42,0-.76-.21-.76-.47s.34-.47.76-.47h614.15c.41,0,.75.21.75.47Z" fill="#25292b"/><g transform="matrix(.652297 0 0 0.742954 178.505864 62.642423)" filter="url(#last-one197-filter)"><path d="M220.38,40.187h-105.17v91.688h105.17v-91.688Z" fill="#f2e9da"/></g></svg>
